<svg width="484" height="484" viewBox="0 0 484 484" fill="none" xmlns="http://www.w3.org/2000/svg">
<path d="M61.5435 355.831C72.2167 381.826 97.1679 394.117 113.115 401.977C175.974 432.948 290.934 428.426 359.687 371.924C375.77 358.7 435.605 290.314 417.152 196.514C400.217 110.433 313.566 66.9585 249.623 59.1137C188.039 51.5512 102.391 72.6354 83.031 123.592C80.4043 130.504 79.4515 136.76 79.0935 141.343C74.2233 160.91 77.2886 175.864 79.159 192.632C79.159 192.632 80.4648 204.364 80.8581 239.318C81.5791 302.803 48.4099 323.847 61.5435 355.831Z" fill="#CADDFF"/>
<path d="M379.441 253.152C379.441 331.994 316.037 395.907 237.82 395.907C159.609 395.907 96.2051 331.994 96.2051 253.152C96.2051 174.311 159.609 110.397 237.82 110.397C316.037 110.397 379.441 174.311 379.441 253.152Z" fill="white"/>
<path d="M210.606 123.173C210.026 124.03 211.755 126.929 215.193 126.929C218.632 126.929 220.351 126.349 221.788 130.105C223.22 133.861 221.213 146.576 223.22 151.2C225.226 155.823 228.665 158.717 231.246 156.11C233.827 153.514 233.54 146.576 236.691 144.842C239.847 143.108 251.312 136.175 251.887 130.393C252.461 124.615 248.448 120.279 238.41 119.124C228.382 117.97 214.906 116.81 210.606 123.173Z" fill="#CADDFF"/>
<path d="M164.615 251.362C163.118 252.119 162.22 253.561 162.291 255.108C162.518 259.953 160.481 272.033 156.206 275.89C150.756 280.801 152.762 289.654 152.677 293.228C152.505 300.483 153.287 303.715 161.938 307.184C170.59 310.647 173.978 310.844 174.623 317.781C175.263 324.719 176.262 351.51 178.823 358.447C181.389 365.38 186.834 376.648 189.723 379.249C192.607 381.851 199.337 383.298 195.168 373.472C191.003 363.645 188.437 359.022 193.247 353.532C198.052 348.041 206.068 335.326 206.708 330.416C207.348 325.5 210.232 322.611 212.798 322.031C215.36 321.457 220.81 319.722 222.413 317.988C224.016 316.254 220.81 311.343 219.847 307.007C218.889 302.671 218.889 300.07 226.9 296.606C234.911 293.138 231.064 283.311 220.169 280.71C209.274 278.108 202.539 272.618 203.824 267.128C205.105 261.637 196.453 262.217 191.326 259.616C186.194 257.014 186.35 252.93 180.643 250.984C172.929 248.353 167.514 249.905 164.615 251.362Z" fill="#99B9FF"/>
<path d="M340.927 245.302C338.512 241.652 338.815 235.864 344.855 227.954C349.599 221.737 342.788 215.521 339.652 213.136C339.077 212.703 339.334 211.795 340.05 211.71C343.942 211.271 352.962 212.587 356.935 232.824C362.062 259 364.18 249.87 366.897 246.825C369.614 243.78 364.527 238.098 369.614 232.214C372.821 228.508 374.444 223.099 375.271 218.692C365.062 177.169 336.829 142.82 299.414 124.574C299.47 129.132 298.381 145.013 279.933 138.464C279.933 138.464 268.458 132.984 271.176 155.208C273.893 177.426 283.256 153.685 285.066 152.767C286.876 151.855 291.711 150.64 289.593 165.553C289.593 165.553 289.291 170.726 279.933 169.813C270.571 168.901 268.761 173.469 268.761 175.904C268.761 178.339 269.663 184.732 264.536 189.294C259.399 193.862 260.911 205.73 267.853 201.778C274.801 197.82 279.631 185.342 285.973 184.122C292.311 182.902 298.053 191.124 304.088 188.992C310.128 186.859 307.41 176.509 310.43 176.509C313.45 176.509 319.793 182.599 318.885 187.167C317.978 191.729 308.62 193.862 311.035 199.337C313.45 204.818 318.583 202.993 320.095 206.643C321.603 210.298 312.543 214.558 305.298 209.995C298.053 205.428 296.843 212.123 293.218 209.083C289.593 206.038 289.291 199.645 284.158 201.778C279.026 203.905 276.006 208.165 269.366 211.21C262.721 214.256 257.286 218.208 257.286 222.474C257.286 226.734 259.701 231.302 258.491 237.997C257.286 244.697 255.174 262.958 276.913 259.303C298.653 255.653 295.936 266.911 295.936 268.131C295.936 269.351 295.633 285.177 297.746 287.914C299.863 290.657 304.693 298.572 297.746 308.918C290.803 319.269 293.521 342.4 299.863 339.355C306.205 336.314 312.543 324.446 320.393 318.356C328.248 312.266 339.117 285.787 334.585 277.569C330.058 269.351 340.927 262.656 342.44 257.175C343.947 251.695 343.342 248.957 340.927 245.302Z" fill="#99B9FF"/>
<path d="M136.422 153.131C136.548 158.197 136.095 164.978 132.843 170.146C123.032 185.75 123.349 193.555 122.396 209.159C121.449 224.763 143.042 252.27 148.422 255.159C153.801 258.048 154.633 251.176 154.633 245.685C154.633 240.195 152.334 233.611 149.168 227.253C146.002 220.896 146.002 216.847 146.954 214.251C147.902 211.649 151.699 210.782 154.23 213.384C156.766 215.98 162.851 218.289 165.775 216.666C169.365 214.669 167.968 206.844 169.234 204.248C170.499 201.647 177.462 199.907 180.31 194.422C183.159 188.931 187.903 186.617 193.6 184.016C199.297 181.419 204.359 180.26 205.307 178.525C206.26 176.796 204.989 172.748 206.572 168.124C208.155 163.501 211.957 158.011 210.369 155.697C208.79 153.388 204.041 149.632 195.183 155.409C186.32 161.187 184.106 161.187 181.576 156.856C179.045 152.521 184.424 141.247 195.501 141.247C206.572 141.247 208.79 137.784 209.108 135.182C209.421 132.581 205.942 129.692 202.146 129.112C198.344 128.532 197.714 130.559 181.893 136.337C171.331 140.194 161.52 138.031 156.508 137.002C149.314 141.852 142.593 147.247 136.422 153.131Z" fill="#99B9FF"/>
<path d="M372.766 278.875C370.623 278.396 371.102 283.664 368.243 284.622C365.395 285.585 364.205 287.022 364.916 292.296C365.632 297.564 364.442 304.517 361.588 307.153C358.74 309.785 354.696 311.706 354.459 318.174C354.222 324.643 348.273 330.874 344.709 333.032C341.144 335.19 335.679 338.543 335.679 344.058C335.679 347.603 335.583 352.14 336.405 355.629C355.276 337.182 369.06 313.481 375.453 286.871C374.898 283.332 373.986 279.147 372.766 278.875Z" fill="#99B9FF"/>
<path d="M237.82 396.572C208.165 396.572 179.74 387.462 155.631 370.235C155.334 370.023 155.263 369.61 155.475 369.312C155.686 369.015 156.1 368.944 156.397 369.156C180.285 386.227 208.443 395.247 237.82 395.247C261.39 395.247 284.718 389.267 305.273 377.954C305.59 377.782 305.994 377.898 306.165 378.216C306.342 378.538 306.226 378.937 305.908 379.113C285.157 390.538 261.612 396.572 237.82 396.572Z" fill="#5479F7"/>
<path d="M96.7091 265.923C96.3662 265.923 96.0788 265.66 96.0486 265.318C95.7158 261.299 95.5444 257.206 95.5444 253.152C95.5444 214.845 110.342 178.833 137.214 151.749C164.086 124.66 199.816 109.737 237.82 109.737C271.438 109.737 304.063 121.776 329.684 143.637C355.009 165.241 372.13 195.168 377.898 227.908C377.963 228.266 377.727 228.609 377.364 228.675C377.006 228.74 376.663 228.498 376.602 228.14C364.643 160.3 306.286 111.063 237.82 111.063C160.098 111.063 96.8654 174.805 96.8654 253.152C96.8654 257.17 97.0317 261.224 97.3645 265.207C97.3947 265.57 97.1275 265.887 96.7645 265.918C96.7444 265.923 96.7242 265.923 96.7091 265.923Z" fill="#5479F7"/>
<path d="M173.081 141.293C173.081 149.506 160.008 169.249 156.872 173.862C156.549 174.336 155.858 174.336 155.536 173.862C153.292 170.555 145.951 159.498 141.963 150.469C140.38 146.889 139.327 143.627 139.327 141.293C139.327 131.961 146.884 124.393 156.206 124.393C165.528 124.393 173.081 131.961 173.081 141.293Z" fill="#5479F7"/>
<path d="M163.92 141.293C163.92 145.558 160.466 149.017 156.206 149.017C151.941 149.017 148.487 145.558 148.487 141.293C148.487 137.023 151.941 133.564 156.206 133.564C160.466 133.564 163.92 137.023 163.92 141.293Z" fill="white"/>
<path d="M157.708 148.785C155.913 148.785 154.108 148.21 152.581 147.025C150.811 145.649 149.687 143.672 149.405 141.449C149.359 141.086 149.616 140.753 149.979 140.708C150.342 140.662 150.67 140.92 150.715 141.283C150.952 143.153 151.9 144.822 153.393 145.981C156.463 148.371 160.905 147.807 163.294 144.731C165.679 141.656 165.119 137.204 162.044 134.819C160.864 133.897 159.448 133.387 157.96 133.337C157.592 133.322 157.31 133.019 157.32 132.651C157.33 132.288 157.638 131.986 158.001 132.016C159.775 132.071 161.449 132.682 162.856 133.771C166.506 136.609 167.166 141.888 164.338 145.543C162.689 147.67 160.209 148.785 157.708 148.785Z" fill="black"/>
<path d="M281.738 168.482C281.738 176.695 268.665 196.438 265.529 201.047C265.207 201.526 264.516 201.52 264.193 201.047C261.945 197.744 254.609 186.688 250.621 177.658C249.038 174.079 247.984 170.812 247.984 168.482C247.984 159.145 255.537 151.583 264.864 151.583C274.181 151.583 281.738 159.145 281.738 168.482Z" fill="#5479F7"/>
<path d="M272.578 168.483C272.578 172.748 269.124 176.206 264.859 176.206C260.599 176.206 257.145 172.748 257.145 168.483C257.145 164.212 260.599 160.754 264.859 160.754C269.124 160.754 272.578 164.212 272.578 168.483Z" fill="white"/>
<path d="M266.356 175.979C264.506 175.979 262.721 175.369 261.234 174.215C259.47 172.844 258.34 170.862 258.058 168.639C258.018 168.276 258.275 167.948 258.633 167.898C258.996 167.857 259.323 168.109 259.374 168.472C259.606 170.348 260.559 172.017 262.046 173.171C263.533 174.331 265.383 174.835 267.254 174.598C269.124 174.366 270.788 173.413 271.948 171.926C273.102 170.434 273.611 168.578 273.374 166.708C273.138 164.837 272.19 163.169 270.697 162.009C269.518 161.091 268.106 160.577 266.614 160.527C266.251 160.517 265.963 160.209 265.973 159.846C265.988 159.483 266.301 159.196 266.659 159.206C268.429 159.266 270.102 159.871 271.509 160.965C273.279 162.337 274.408 164.318 274.685 166.541C274.963 168.765 274.363 170.963 272.991 172.733C271.62 174.502 269.639 175.632 267.42 175.914C267.062 175.959 266.709 175.979 266.356 175.979Z" fill="black"/>
<path d="M228.629 263.82C228.629 272.038 215.551 291.781 212.42 296.389C212.098 296.863 211.402 296.863 211.079 296.389C208.836 293.087 201.5 282.031 197.512 273.001C195.929 269.422 194.875 266.155 194.875 263.82C194.875 254.488 202.428 246.921 211.75 246.921C221.072 246.921 228.629 254.488 228.629 263.82Z" fill="#5479F7"/>
<path d="M219.469 263.82C219.469 268.091 216.01 271.549 211.75 271.549C207.49 271.549 204.031 268.091 204.031 263.82C204.031 259.555 207.49 256.096 211.75 256.096C216.01 256.096 219.469 259.555 219.469 263.82Z" fill="white"/>
<path d="M213.247 271.317C211.397 271.317 209.612 270.707 208.125 269.558C206.361 268.181 205.231 266.2 204.954 263.977C204.909 263.614 205.166 263.286 205.524 263.241C205.887 263.195 206.219 263.452 206.265 263.81C206.497 265.686 207.45 267.355 208.937 268.509C210.424 269.669 212.274 270.173 214.145 269.941C216.015 269.704 217.684 268.751 218.839 267.264C219.993 265.771 220.502 263.921 220.265 262.046C220.029 260.175 219.081 258.506 217.593 257.347C216.409 256.429 214.997 255.915 213.505 255.87C213.142 255.855 212.854 255.552 212.864 255.184C212.879 254.821 213.182 254.518 213.55 254.544C215.32 254.604 216.998 255.214 218.4 256.303C220.17 257.68 221.299 259.656 221.576 261.879C221.854 264.103 221.254 266.306 219.882 268.076C218.511 269.84 216.53 270.969 214.311 271.252C213.953 271.297 213.6 271.317 213.247 271.317Z" fill="black"/>
<path d="M314.887 301.098C314.887 309.316 301.809 329.06 298.678 333.668C298.356 334.142 297.665 334.142 297.342 333.668C295.094 330.365 287.758 319.309 283.77 310.279C282.187 306.695 281.133 303.433 281.133 301.098C281.133 291.766 288.691 284.204 298.008 284.204C307.33 284.204 314.887 291.766 314.887 301.098Z" fill="#5479F7"/>
<path d="M305.726 301.099C305.726 305.369 302.273 308.827 298.013 308.827C293.747 308.827 290.294 305.369 290.294 301.099C290.294 296.833 293.747 293.37 298.013 293.37C302.273 293.37 305.726 296.833 305.726 301.099Z" fill="white"/>
<path d="M299.505 308.595C297.66 308.595 295.87 307.985 294.388 306.831C292.618 305.46 291.494 303.478 291.212 301.255C291.166 300.892 291.423 300.559 291.786 300.514C292.144 300.473 292.477 300.725 292.523 301.088C292.76 302.959 293.707 304.633 295.195 305.787C296.687 306.947 298.532 307.451 300.408 307.219C302.278 306.982 303.942 306.029 305.102 304.537C307.486 301.461 306.927 297.015 303.851 294.625C302.666 293.707 301.255 293.193 299.762 293.143C299.399 293.133 299.112 292.825 299.127 292.462C299.137 292.094 299.45 291.797 299.808 291.822C301.577 291.882 303.256 292.487 304.663 293.581C308.313 296.415 308.974 301.698 306.145 305.349C304.769 307.118 302.792 308.248 300.574 308.53C300.216 308.575 299.858 308.595 299.505 308.595Z" fill="black"/>
<path d="M217.488 162.548C217.145 162.548 216.857 162.281 216.832 161.928C216.802 161.565 217.079 161.253 217.442 161.222C218.531 161.147 219.615 161.112 220.664 161.112C221.128 161.127 221.591 161.117 222.05 161.132C222.302 161.142 222.549 161.147 222.801 161.162C223.169 161.182 223.447 161.49 223.427 161.858C223.411 162.221 223.094 162.488 222.736 162.483C222.494 162.473 222.252 162.463 222.005 162.453C221.561 162.438 221.112 162.422 220.664 162.432C219.645 162.432 218.592 162.468 217.533 162.543C217.518 162.543 217.503 162.548 217.488 162.548ZM233.162 164.253C233.102 164.253 233.046 164.247 232.981 164.227C231.297 163.743 229.582 163.355 227.904 163.063C227.546 163.002 227.304 162.659 227.364 162.301C227.43 161.938 227.772 161.701 228.125 161.762C229.86 162.059 231.609 162.463 233.344 162.957C233.696 163.058 233.898 163.426 233.802 163.774C233.717 164.066 233.449 164.253 233.162 164.253ZM207.092 164.368C206.804 164.368 206.537 164.177 206.456 163.884C206.361 163.532 206.562 163.169 206.915 163.068C208.624 162.589 210.379 162.19 212.133 161.883C212.486 161.822 212.834 162.059 212.895 162.417C212.96 162.78 212.718 163.123 212.36 163.184C210.651 163.486 208.937 163.874 207.273 164.343C207.213 164.358 207.152 164.368 207.092 164.368ZM242.958 168.16C242.857 168.16 242.751 168.14 242.656 168.089C241.118 167.288 239.52 166.557 237.916 165.916C237.574 165.78 237.407 165.397 237.543 165.059C237.679 164.716 238.063 164.555 238.405 164.686C240.054 165.347 241.688 166.093 243.266 166.915C243.588 167.081 243.714 167.484 243.548 167.807C243.427 168.029 243.2 168.16 242.958 168.16ZM197.316 168.321C197.084 168.321 196.857 168.2 196.741 167.983C196.56 167.666 196.676 167.262 196.993 167.081C198.48 166.249 200.119 165.478 201.843 164.782C202.181 164.646 202.564 164.812 202.7 165.155C202.836 165.493 202.67 165.876 202.332 166.012C200.658 166.683 199.08 167.429 197.638 168.235C197.538 168.296 197.422 168.321 197.316 168.321ZM173.383 171.16C173.065 171.16 172.783 170.923 172.733 170.595C172.677 170.237 172.924 169.899 173.282 169.844C175.017 169.577 176.816 169.425 178.631 169.4C178.636 169.4 178.641 169.4 178.647 169.4C179.004 169.4 179.297 169.687 179.307 170.045C179.312 170.413 179.02 170.716 178.657 170.721C176.897 170.746 175.158 170.892 173.484 171.15C173.449 171.155 173.418 171.16 173.383 171.16ZM189.133 171.815C189.083 171.815 189.037 171.81 188.987 171.8C187.278 171.422 185.549 171.139 183.85 170.958C183.486 170.918 183.224 170.59 183.26 170.227C183.3 169.864 183.628 169.602 183.986 169.642C185.74 169.829 187.515 170.121 189.274 170.509C189.627 170.585 189.854 170.938 189.773 171.296C189.708 171.603 189.436 171.815 189.133 171.815ZM251.781 173.958C251.635 173.958 251.489 173.907 251.362 173.806C250.036 172.723 248.625 171.684 247.158 170.721C246.85 170.519 246.77 170.111 246.971 169.808C247.168 169.501 247.581 169.415 247.884 169.617C249.386 170.605 250.843 171.669 252.204 172.783C252.482 173.015 252.522 173.433 252.29 173.716C252.164 173.877 251.973 173.958 251.781 173.958ZM163.355 174.336C163.113 174.336 162.881 174.205 162.765 173.978C162.599 173.65 162.73 173.252 163.058 173.086C164.641 172.284 166.32 171.598 168.044 171.059C168.392 170.948 168.765 171.144 168.871 171.492C168.982 171.84 168.79 172.208 168.442 172.319C166.783 172.838 165.175 173.494 163.653 174.265C163.557 174.316 163.456 174.336 163.355 174.336ZM189.39 175.168C189.264 175.168 189.143 175.132 189.032 175.062C188.725 174.86 188.639 174.452 188.836 174.144C189.743 172.743 190.983 171.386 192.521 170.111C192.804 169.879 193.222 169.919 193.454 170.197C193.686 170.479 193.645 170.897 193.363 171.129C191.931 172.319 190.782 173.58 189.945 174.865C189.819 175.062 189.607 175.168 189.39 175.168ZM199.121 175.203C199.03 175.203 198.934 175.183 198.843 175.143C197.301 174.417 195.677 173.766 194.008 173.201C193.661 173.086 193.479 172.707 193.595 172.365C193.711 172.017 194.084 171.83 194.432 171.946C196.146 172.531 197.815 173.201 199.403 173.943C199.731 174.099 199.877 174.492 199.721 174.825C199.61 175.062 199.368 175.203 199.121 175.203ZM155.203 180.905C155.062 180.905 154.92 180.86 154.799 180.769C154.507 180.547 154.457 180.129 154.678 179.841C155.833 178.339 157.108 177.028 158.47 175.954C158.757 175.727 159.171 175.773 159.397 176.06C159.624 176.347 159.574 176.761 159.292 176.993C158.011 178.001 156.811 179.231 155.727 180.648C155.596 180.819 155.399 180.905 155.203 180.905ZM207.893 181.021C207.722 181.021 207.555 180.961 207.429 180.83C206.34 179.746 204.984 178.677 203.391 177.648C203.083 177.447 202.998 177.038 203.194 176.736C203.391 176.428 203.799 176.337 204.107 176.534C205.771 177.618 207.208 178.742 208.357 179.892C208.619 180.149 208.619 180.567 208.362 180.83C208.231 180.956 208.065 181.021 207.893 181.021ZM259.091 181.571C258.89 181.571 258.688 181.48 258.562 181.303C257.549 179.937 256.419 178.606 255.194 177.336C254.942 177.073 254.952 176.655 255.209 176.403C255.476 176.151 255.895 176.156 256.147 176.418C257.407 177.729 258.577 179.105 259.621 180.512C259.838 180.809 259.777 181.223 259.485 181.44C259.364 181.525 259.227 181.571 259.091 181.571ZM188.508 185.266C188.241 185.266 187.989 185.105 187.888 184.843C187.278 183.219 186.97 181.631 186.97 180.109C186.97 179.867 186.98 179.625 186.996 179.383C187.021 179.02 187.343 178.732 187.701 178.767C188.064 178.793 188.337 179.11 188.311 179.473C188.296 179.685 188.291 179.897 188.291 180.109C188.291 181.47 188.574 182.907 189.123 184.374C189.254 184.717 189.083 185.095 188.74 185.226C188.664 185.256 188.584 185.266 188.508 185.266ZM150.383 190.268C150.312 190.268 150.242 190.252 150.171 190.227C149.823 190.111 149.637 189.738 149.758 189.39C150.348 187.631 151.043 185.957 151.82 184.424C151.981 184.102 152.379 183.97 152.707 184.137C153.03 184.298 153.161 184.696 152.995 185.024C152.248 186.501 151.578 188.115 151.008 189.814C150.912 190.091 150.655 190.268 150.383 190.268ZM209.209 190.303C209.063 190.303 208.917 190.257 208.801 190.162C208.513 189.935 208.463 189.516 208.69 189.234C209.643 188.034 210.147 186.804 210.147 185.68V185.604C210.137 185.377 210.112 185.145 210.056 184.903C209.975 184.545 210.197 184.192 210.555 184.112C210.908 184.036 211.266 184.253 211.342 184.611C211.417 184.938 211.458 185.261 211.468 185.574V185.68C211.468 187.106 210.863 188.619 209.728 190.056C209.597 190.217 209.406 190.303 209.209 190.303ZM264.057 190.857C263.78 190.857 263.528 190.686 263.432 190.414C262.873 188.81 262.177 187.217 261.345 185.675C261.174 185.357 261.295 184.954 261.617 184.782C261.935 184.611 262.333 184.727 262.51 185.049C263.372 186.653 264.103 188.306 264.678 189.98C264.799 190.323 264.617 190.701 264.274 190.822C264.199 190.847 264.128 190.857 264.057 190.857ZM195.047 193.343C194.931 193.343 194.81 193.318 194.704 193.252C193.222 192.355 191.805 191.089 190.605 189.592C190.378 189.31 190.424 188.896 190.711 188.664C190.994 188.437 191.412 188.483 191.639 188.77C192.738 190.141 194.034 191.301 195.385 192.118C195.697 192.309 195.798 192.713 195.612 193.025C195.491 193.232 195.269 193.343 195.047 193.343ZM200.134 194.86H200.028C199.665 194.855 199.373 194.558 199.378 194.195C199.383 193.832 199.675 193.54 200.038 193.54C200.038 193.54 200.043 193.54 200.048 193.54H200.134C201.642 193.54 203.26 193.121 204.813 192.335C205.14 192.168 205.539 192.299 205.7 192.627C205.866 192.95 205.735 193.348 205.413 193.514C203.673 194.397 201.848 194.86 200.134 194.86ZM148.175 200.588C148.149 200.588 148.124 200.588 148.099 200.583C147.741 200.542 147.479 200.215 147.519 199.852C147.716 198.047 147.998 196.267 148.356 194.568C148.432 194.21 148.78 193.983 149.138 194.059C149.496 194.134 149.722 194.482 149.647 194.84C149.299 196.494 149.022 198.233 148.83 199.998C148.79 200.336 148.507 200.588 148.175 200.588ZM265.646 201.248C265.64 201.248 265.63 201.248 265.62 201.248C265.257 201.233 264.975 200.926 264.99 200.558C265 200.205 265.01 199.852 265.01 199.499C265.01 198.138 264.899 196.766 264.693 195.42C264.637 195.057 264.884 194.719 265.242 194.664C265.605 194.608 265.943 194.855 265.998 195.213C266.22 196.635 266.331 198.072 266.331 199.499C266.331 199.872 266.321 200.245 266.306 200.613C266.296 200.971 266.003 201.248 265.646 201.248ZM147.923 211.15C147.575 211.15 147.287 210.878 147.267 210.53C147.192 209.234 147.156 207.928 147.156 206.648C147.156 206.159 147.161 205.67 147.171 205.191C147.176 204.823 147.464 204.525 147.847 204.54C148.21 204.551 148.497 204.853 148.492 205.216C148.482 205.69 148.472 206.169 148.472 206.648C148.472 207.903 148.512 209.184 148.583 210.449C148.603 210.817 148.326 211.13 147.963 211.15C147.948 211.15 147.938 211.15 147.923 211.15ZM263.432 211.528C263.357 211.528 263.276 211.513 263.205 211.483C262.863 211.357 262.686 210.979 262.817 210.631C263.462 208.907 263.951 207.278 264.309 205.665C264.39 205.312 264.743 205.09 265.096 205.166C265.454 205.246 265.676 205.599 265.6 205.952C265.227 207.631 264.718 209.31 264.052 211.1C263.951 211.362 263.699 211.528 263.432 211.528ZM258.885 221.062C258.774 221.062 258.663 221.037 258.562 220.976C258.244 220.8 258.128 220.402 258.305 220.079C259.258 218.36 260.054 216.837 260.74 215.425C260.901 215.098 261.295 214.962 261.622 215.123C261.95 215.279 262.091 215.678 261.93 216.005C261.234 217.437 260.427 218.98 259.459 220.719C259.338 220.936 259.117 221.062 258.885 221.062ZM149.294 221.632C148.986 221.632 148.714 221.415 148.649 221.102C148.296 219.358 147.998 217.583 147.766 215.839C147.721 215.476 147.973 215.148 148.336 215.098C148.694 215.057 149.027 215.304 149.077 215.667C149.304 217.382 149.591 219.121 149.944 220.84C150.015 221.198 149.788 221.546 149.43 221.617C149.385 221.627 149.339 221.632 149.294 221.632ZM253.591 230.223C253.48 230.223 253.369 230.192 253.263 230.132C252.951 229.95 252.84 229.547 253.021 229.23C253.667 228.11 254.312 227.011 254.952 225.912L255.683 224.657C255.87 224.339 256.273 224.233 256.591 224.42C256.903 224.601 257.009 225.005 256.828 225.322L256.092 226.583C255.451 227.677 254.811 228.776 254.166 229.89C254.045 230.102 253.823 230.223 253.591 230.223ZM152.112 231.821C151.84 231.821 151.583 231.65 151.487 231.377C150.902 229.703 150.363 227.989 149.894 226.29C149.798 225.937 150.005 225.569 150.353 225.479C150.706 225.378 151.069 225.584 151.164 225.932C151.628 227.606 152.158 229.29 152.732 230.939C152.853 231.287 152.672 231.66 152.329 231.781C152.258 231.806 152.183 231.821 152.112 231.821ZM248.615 239.545C248.519 239.545 248.423 239.525 248.332 239.484C248 239.323 247.864 238.93 248.02 238.602C248.736 237.095 249.527 235.542 250.43 233.863C250.606 233.535 251.005 233.419 251.322 233.591C251.645 233.767 251.766 234.165 251.594 234.488C250.702 236.147 249.921 237.679 249.21 239.167C249.099 239.409 248.862 239.545 248.615 239.545ZM156.262 241.536C156.019 241.536 155.788 241.405 155.672 241.178C154.87 239.6 154.109 237.972 153.418 236.343C153.272 236.011 153.428 235.622 153.766 235.481C154.099 235.335 154.487 235.491 154.633 235.824C155.314 237.427 156.06 239.025 156.846 240.578C157.013 240.901 156.882 241.299 156.559 241.466C156.463 241.516 156.362 241.536 156.262 241.536ZM244.763 249.381C244.702 249.381 244.637 249.371 244.576 249.356C244.223 249.25 244.027 248.882 244.133 248.529C244.627 246.88 245.217 245.181 245.887 243.487C246.018 243.15 246.401 242.983 246.744 243.114C247.082 243.25 247.248 243.634 247.117 243.971C246.462 245.635 245.882 247.299 245.393 248.912C245.312 249.195 245.05 249.381 244.763 249.381ZM161.661 250.621C161.449 250.621 161.248 250.52 161.117 250.334C160.113 248.877 159.145 247.364 158.243 245.847C158.056 245.534 158.157 245.126 158.47 244.939C158.782 244.753 159.191 244.859 159.377 245.171C160.265 246.664 161.217 248.151 162.206 249.583C162.412 249.885 162.337 250.294 162.034 250.505C161.923 250.581 161.792 250.621 161.661 250.621ZM168.22 258.9C168.039 258.9 167.857 258.829 167.731 258.683C166.541 257.372 165.382 256.006 164.283 254.619C164.056 254.332 164.106 253.919 164.394 253.692C164.676 253.465 165.094 253.51 165.316 253.798C166.395 255.164 167.535 256.505 168.709 257.796C168.951 258.068 168.931 258.486 168.664 258.728C168.533 258.849 168.377 258.9 168.22 258.9ZM242.726 259.732C242.701 259.732 242.681 259.732 242.661 259.732C242.298 259.696 242.03 259.374 242.066 259.011C242.232 257.246 242.489 255.471 242.837 253.717C242.908 253.359 243.255 253.127 243.613 253.198C243.971 253.268 244.203 253.616 244.133 253.974C243.795 255.683 243.543 257.417 243.382 259.132C243.346 259.474 243.059 259.732 242.726 259.732ZM175.813 266.245C175.662 266.245 175.511 266.19 175.385 266.084C174.033 264.94 172.702 263.735 171.437 262.515C171.175 262.257 171.165 261.839 171.422 261.577C171.674 261.315 172.092 261.31 172.354 261.562C173.6 262.767 174.906 263.946 176.237 265.076C176.519 265.313 176.549 265.731 176.317 266.008C176.186 266.165 176 266.245 175.813 266.245ZM242.726 270.294C242.383 270.294 242.096 270.037 242.066 269.684C241.924 267.894 241.844 266.099 241.834 264.355C241.834 263.987 242.126 263.689 242.494 263.689C242.857 263.689 243.155 263.982 243.155 264.345C243.165 266.064 243.24 267.818 243.382 269.583C243.412 269.946 243.14 270.264 242.777 270.294C242.756 270.294 242.741 270.294 242.726 270.294ZM244.294 280.75C243.992 280.75 243.719 280.539 243.654 280.231C243.271 278.492 242.943 276.727 242.681 274.988C242.625 274.625 242.877 274.292 243.235 274.231C243.593 274.181 243.931 274.428 243.987 274.786C244.244 276.5 244.566 278.235 244.939 279.949C245.02 280.302 244.793 280.655 244.435 280.735C244.39 280.745 244.344 280.75 244.294 280.75ZM247.213 290.914C246.941 290.914 246.689 290.743 246.593 290.476C245.998 288.807 245.449 287.103 244.96 285.399C244.859 285.051 245.06 284.683 245.408 284.582C245.761 284.481 246.124 284.683 246.23 285.036C246.709 286.71 247.248 288.388 247.833 290.027C247.959 290.37 247.778 290.753 247.435 290.874C247.364 290.899 247.289 290.914 247.213 290.914ZM251.403 300.62C251.166 300.62 250.934 300.488 250.818 300.262C250.016 298.699 249.25 297.075 248.544 295.437C248.398 295.099 248.554 294.711 248.887 294.564C249.225 294.423 249.613 294.575 249.759 294.912C250.45 296.521 251.206 298.119 251.993 299.657C252.159 299.979 252.033 300.378 251.705 300.544C251.61 300.594 251.504 300.62 251.403 300.62ZM256.863 309.669C256.661 309.669 256.455 309.568 256.329 309.387C255.315 307.96 254.332 306.453 253.409 304.92C253.218 304.607 253.319 304.199 253.631 304.013C253.944 303.821 254.347 303.922 254.539 304.234C255.446 305.742 256.409 307.219 257.402 308.621C257.614 308.923 257.544 309.332 257.246 309.543C257.13 309.629 256.994 309.669 256.863 309.669ZM263.629 317.776C263.457 317.776 263.291 317.711 263.16 317.58C261.93 316.334 260.725 315.003 259.575 313.622C259.338 313.34 259.379 312.926 259.661 312.689C259.938 312.457 260.357 312.493 260.589 312.775C261.713 314.126 262.893 315.432 264.103 316.652C264.355 316.909 264.355 317.328 264.093 317.585C263.962 317.711 263.795 317.776 263.629 317.776ZM271.716 324.557C271.59 324.557 271.459 324.517 271.348 324.436C269.896 323.448 268.464 322.364 267.087 321.205C266.805 320.973 266.77 320.554 267.002 320.277C267.239 319.995 267.657 319.959 267.934 320.191C269.281 321.321 270.677 322.379 272.089 323.347C272.391 323.554 272.467 323.962 272.265 324.265C272.139 324.451 271.927 324.557 271.716 324.557ZM281.023 329.498C280.942 329.498 280.861 329.483 280.781 329.458C279.142 328.807 277.504 328.051 275.925 327.209C275.603 327.038 275.482 326.64 275.653 326.317C275.825 325.994 276.223 325.873 276.546 326.045C278.083 326.861 279.671 327.597 281.265 328.223C281.607 328.359 281.774 328.742 281.638 329.08C281.537 329.342 281.285 329.498 281.023 329.498ZM307.002 331.848C306.69 331.848 306.407 331.621 306.357 331.298C306.291 330.94 306.533 330.597 306.896 330.537C308.575 330.254 310.295 329.886 312.004 329.448C312.357 329.357 312.72 329.569 312.81 329.922C312.896 330.275 312.689 330.638 312.336 330.728C310.587 331.177 308.832 331.55 307.113 331.843C307.078 331.848 307.038 331.848 307.002 331.848ZM291.222 332.17C291.192 332.17 291.161 332.165 291.131 332.165C289.356 331.918 287.592 331.56 285.878 331.117C285.525 331.026 285.313 330.663 285.404 330.31C285.5 329.957 285.858 329.745 286.21 329.836C287.874 330.27 289.588 330.612 291.313 330.854C291.676 330.905 291.923 331.238 291.877 331.601C291.832 331.933 291.545 332.17 291.222 332.17ZM297.922 332.629C297.443 332.629 296.954 332.624 296.465 332.609C296.102 332.599 295.81 332.296 295.825 331.928C295.835 331.565 296.137 331.268 296.506 331.288C298.245 331.338 299.964 331.298 301.714 331.167C302.087 331.137 302.394 331.414 302.419 331.777C302.45 332.145 302.172 332.458 301.809 332.488C300.509 332.579 299.198 332.629 297.922 332.629Z" fill="#5479F7"/>
<path d="M302.959 390.618C287.733 376.567 295.613 367.502 295.613 367.502C295.613 367.502 302.414 356.466 326.287 370.89C350.154 385.315 373.26 379.955 378.483 377.792C383.706 375.629 401.967 362.037 412.252 361.276C417.975 360.847 424.831 365.163 418.822 376.809C406.389 400.898 372.625 403.651 372.625 403.651C372.625 403.651 356.265 406.726 339.456 403.747C339.456 403.747 318.185 404.669 302.959 390.618Z" fill="#5479F7"/>
<path d="M339.45 403.086C339.491 403.086 339.531 403.086 339.566 403.096C356.057 406.021 372.342 403.031 372.503 403.001C372.524 402.996 372.549 402.991 372.569 402.991C372.907 402.965 406.111 399.986 418.231 376.507C420.762 371.596 421.176 367.593 419.426 364.941C417.783 362.456 414.667 361.755 412.302 361.936C405.279 362.456 394.455 369.085 386.555 373.93C383.096 376.053 380.358 377.732 378.735 378.402C375.982 379.542 368.808 381.422 359.36 381.226C347.502 380.984 336.264 377.696 325.944 371.46C313.884 364.175 306.402 363.605 302.258 364.412C297.841 365.269 296.188 367.825 296.173 367.85C296.152 367.88 296.132 367.911 296.107 367.936C295.81 368.289 288.872 376.723 303.402 390.134C318.245 403.827 339.213 403.096 339.42 403.086C339.435 403.086 339.44 403.086 339.45 403.086ZM355.155 405.698C350.305 405.698 344.87 405.375 339.405 404.407C337.983 404.448 317.302 404.76 302.51 391.107C296.047 385.143 292.82 379.315 292.916 373.779C292.976 369.806 294.796 367.452 295.079 367.109C295.341 366.711 297.236 364.084 301.865 363.141C308.247 361.84 316.576 364.255 326.624 370.326C336.743 376.441 347.769 379.663 359.385 379.9C368.616 380.086 375.574 378.281 378.226 377.182C379.758 376.547 382.592 374.813 385.869 372.806C393.885 367.89 404.866 361.16 412.201 360.615C414.944 360.409 418.574 361.251 420.525 364.21C421.947 366.358 422.9 370.341 419.401 377.112C412.882 389.746 400.52 396.467 391.289 399.885C381.649 403.454 373.32 404.251 372.715 404.306C372.15 404.407 364.82 405.698 355.155 405.698Z" fill="black"/>
<path d="M342.616 392.67L352.18 398.292L345.167 402.118L340.706 399.255L342.616 392.67Z" fill="white"/>
<path d="M341.477 398.967L345.198 401.352L350.839 398.271L343.015 393.668L341.477 398.967ZM345.168 402.779C345.042 402.779 344.921 402.743 344.815 402.673L340.348 399.814C340.101 399.658 339.99 399.355 340.07 399.073L341.981 392.484C342.037 392.287 342.183 392.131 342.369 392.055C342.561 391.979 342.773 391.995 342.949 392.1L352.513 397.727C352.72 397.843 352.841 398.065 352.841 398.307C352.836 398.544 352.7 398.76 352.493 398.876L345.485 402.698C345.384 402.753 345.273 402.779 345.168 402.779Z" fill="black"/>
<path d="M345.198 399.587L346.63 398.14C347.144 397.621 347.951 397.52 348.576 397.898L349.594 398.513L350.124 397.727C350.361 397.213 350.971 396.895 351.48 397.142C357.54 400.056 365.259 402.285 368.879 404.972C373.164 408.148 370.124 415.221 362.647 414.5C356.723 413.926 348.631 407.316 345.526 404.594C344.911 404.059 345.072 403.071 345.813 402.748L345.818 402.743L345.027 401.604C344.593 400.979 344.664 400.132 345.198 399.587Z" fill="white"/>
<path d="M345.672 400.051C345.364 400.369 345.319 400.863 345.571 401.226L346.362 402.365C346.478 402.532 346.508 402.738 346.453 402.93C346.393 403.127 346.251 403.283 346.065 403.359C345.873 403.439 345.828 403.621 345.813 403.696C345.803 403.767 345.793 403.948 345.959 404.095C349.095 406.842 357 413.291 362.712 413.84C366.842 414.243 369.156 412.161 369.887 410.256C370.572 408.471 370.038 406.651 368.49 405.501C366.358 403.923 362.682 402.471 358.79 400.939C356.234 399.93 353.597 398.887 351.192 397.732C351.142 397.712 351.081 397.712 351.011 397.737C350.895 397.777 350.784 397.883 350.728 398.004C350.713 398.035 350.693 398.065 350.673 398.1L350.138 398.887C349.942 399.179 349.549 399.265 349.251 399.078L348.233 398.463C347.87 398.241 347.406 398.297 347.103 398.604L345.672 400.051ZM363.726 415.217C363.358 415.217 362.98 415.196 362.586 415.156C356.491 414.571 348.323 407.921 345.092 405.093C344.633 404.69 344.416 404.095 344.507 403.495C344.557 403.157 344.704 402.849 344.92 402.602L344.487 401.982C343.872 401.095 343.973 399.89 344.734 399.124L346.161 397.677C346.897 396.935 348.026 396.794 348.918 397.334L349.397 397.626L349.554 397.394C349.765 396.976 350.133 396.648 350.567 396.492C350.965 396.346 351.394 396.366 351.767 396.542C354.126 397.677 356.743 398.71 359.274 399.708C363.252 401.276 367.003 402.754 369.272 404.437C371.293 405.935 372.014 408.405 371.122 410.734C370.295 412.877 367.89 415.217 363.726 415.217Z" fill="black"/>
<path d="M361.795 412.701C361.008 412.701 360.151 412.585 359.229 412.323C358.881 412.222 358.679 411.854 358.78 411.506C358.881 411.153 359.244 410.951 359.597 411.052C363.02 412.03 365.314 410.624 366.247 409.111C366.952 407.967 366.942 406.721 366.226 405.94C365.979 405.668 365.995 405.249 366.262 405.002C366.529 404.755 366.947 404.775 367.194 405.043C368.329 406.273 368.394 408.143 367.371 409.807C366.458 411.284 364.543 412.701 361.795 412.701Z" fill="black"/>
<path d="M358.145 409.348C358.014 409.348 357.883 409.308 357.767 409.227C357.469 409.02 357.394 408.612 357.601 408.309L361.13 403.202C361.341 402.905 361.75 402.824 362.052 403.036C362.35 403.243 362.425 403.656 362.219 403.953L358.69 409.061C358.558 409.247 358.352 409.348 358.145 409.348Z" fill="black"/>
<path d="M354.5 407.977C354.404 407.977 354.308 407.957 354.218 407.911C353.885 407.755 353.749 407.362 353.905 407.034L356.325 401.932C356.481 401.604 356.874 401.463 357.207 401.619C357.535 401.781 357.676 402.174 357.515 402.501L355.095 407.599C354.984 407.836 354.747 407.977 354.5 407.977Z" fill="black"/>
<path d="M365.717 393.709C365.531 393.709 365.354 393.633 365.223 393.487L364.432 392.59C364.311 392.454 364.255 392.282 364.265 392.101C364.28 391.924 364.366 391.763 364.497 391.647L368.48 388.234C374.616 382.97 381.341 378.372 388.465 374.551L391.334 373.013C391.657 372.841 392.06 372.962 392.231 373.285C392.403 373.608 392.282 374.011 391.959 374.183L389.09 375.72C382.052 379.491 375.402 384.039 369.342 389.237L365.864 392.217L366.211 392.61C366.453 392.887 366.428 393.301 366.151 393.543C366.025 393.653 365.874 393.709 365.717 393.709Z" fill="black"/>
<path d="M366.585 394.621L351.591 400.853L355.054 405.774L371.768 400.853L366.585 394.621Z" fill="white"/>
<path d="M352.604 401.15L355.317 405.007L370.618 400.505L366.388 395.418L352.604 401.15ZM355.049 406.434C354.838 406.434 354.636 406.333 354.51 406.157L351.051 401.236C350.935 401.07 350.905 400.863 350.961 400.671C351.016 400.48 351.152 400.318 351.339 400.243L366.333 394.011C366.6 393.895 366.907 393.971 367.094 394.198L372.272 400.434C372.418 400.601 372.463 400.833 372.398 401.05C372.332 401.261 372.166 401.428 371.954 401.488L355.236 406.409C355.175 406.429 355.115 406.434 355.049 406.434Z" fill="black"/>
<path d="M357.747 402.028L356.577 400.364C356.153 399.764 355.377 399.532 354.696 399.804L352.967 400.565L352.831 400.061C352.68 399.517 352.145 399.174 351.591 399.26C348.193 399.799 337.519 401.377 333.506 403.434C328.757 405.859 330.597 413.336 338.084 413.855C344.023 414.269 352.241 409.862 355.659 407.543C356.779 406.782 355.997 405.36 355.997 405.36L357.585 404.044C358.12 403.5 358.185 402.648 357.747 402.028Z" fill="white"/>
<path d="M351.762 399.905C351.737 399.905 351.717 399.91 351.692 399.915L350.986 400.026C347.29 400.601 337.479 402.139 333.804 404.019C332.09 404.896 331.258 406.605 331.641 408.481C332.049 410.477 333.99 412.913 338.13 413.2C343.464 413.563 351.308 409.691 355.281 406.994C355.876 406.595 355.463 405.769 355.412 405.673C355.261 405.395 355.327 405.048 355.574 404.846L357.132 403.56C357.419 403.243 357.454 402.759 357.202 402.406L356.033 400.742C355.785 400.394 355.332 400.258 354.938 400.419L353.229 401.171C353.053 401.251 352.856 401.246 352.68 401.166C352.508 401.08 352.377 400.924 352.327 400.742L352.191 400.238C352.135 400.041 351.959 399.905 351.762 399.905ZM338.876 414.546C338.593 414.546 338.311 414.536 338.039 414.516C333.158 414.178 330.849 411.198 330.35 408.748C329.851 406.303 330.97 403.984 333.204 402.844C337.066 400.868 346.675 399.361 350.784 398.72L351.485 398.609C352.292 398.483 353.068 398.922 353.386 399.658L354.429 399.199C355.417 398.801 356.511 399.129 357.111 399.981L358.281 401.644C358.906 402.532 358.81 403.732 358.054 404.508C358.039 404.523 358.024 404.538 358.004 404.554L356.789 405.557C357.021 406.318 357.036 407.402 356.027 408.093C352.634 410.392 344.89 414.546 338.876 414.546Z" fill="black"/>
<path d="M347.3 408.778C347.013 408.778 346.751 408.587 346.665 408.294L345.117 402.87C345.017 402.522 345.223 402.154 345.571 402.053C345.919 401.952 346.287 402.154 346.388 402.507L347.941 407.931C348.037 408.284 347.835 408.652 347.482 408.753C347.426 408.768 347.361 408.778 347.3 408.778Z" fill="black"/>
<path d="M338.23 412.292C338.16 412.292 338.089 412.282 338.018 412.257C335.392 411.36 333.859 410.079 333.476 408.461C332.962 406.308 334.711 404.473 334.782 404.397C335.034 404.13 335.452 404.125 335.714 404.382C335.976 404.634 335.987 405.053 335.729 405.315C335.714 405.33 334.409 406.716 334.761 408.163C335.034 409.293 336.309 410.276 338.447 411.007C338.79 411.128 338.971 411.501 338.855 411.849C338.759 412.121 338.502 412.292 338.23 412.292Z" fill="black"/>
<path d="M342.975 391.894C342.934 391.894 342.889 391.889 342.844 391.879C342.486 391.808 342.259 391.46 342.329 391.102L342.526 390.114C339.904 388.203 322.677 375.856 313.057 374.429C312.699 374.379 312.447 374.041 312.503 373.678C312.558 373.32 312.896 373.068 313.254 373.124C323.962 374.712 342.854 388.707 343.65 389.302C343.857 389.454 343.953 389.711 343.907 389.963L343.62 391.364C343.559 391.677 343.287 391.894 342.975 391.894Z" fill="black"/>
<path d="M392.872 355.896C392.085 352.392 387.417 341.744 383.646 332.216C380.641 324.613 372.388 317.822 363.736 316.717C357.293 315.896 350.31 315.734 343.595 316.259C332.397 317.146 322.783 323.03 319.077 332.866C315.739 341.724 312.104 352.604 312.019 358.115C311.933 363.983 315.477 369.594 319.344 373.95C324.219 379.446 331.177 382.874 338.689 383.57C349.423 384.563 366.171 385.561 373.779 383.076C385.445 379.259 394.762 364.391 392.872 355.896Z" fill="black"/>
<path d="M381.19 343.388H335.2C333.113 343.388 331.419 345.082 331.419 347.169V377.616C331.419 379.703 333.113 381.402 335.2 381.402H381.19C383.278 381.402 384.972 379.703 384.972 377.616V347.169C384.972 345.082 383.278 343.388 381.19 343.388Z" fill="#99B9FF"/>
<path d="M335.205 344.048C333.486 344.048 332.085 345.45 332.085 347.169V377.616C332.085 379.335 333.486 380.742 335.205 380.742H381.195C382.915 380.742 384.311 379.335 384.311 377.616V347.169C384.311 345.45 382.915 344.048 381.195 344.048H335.205ZM381.195 382.063H335.205C332.755 382.063 330.764 380.066 330.764 377.616V347.169C330.764 344.719 332.755 342.722 335.205 342.722H381.195C383.641 342.722 385.632 344.719 385.632 347.169V377.616C385.632 380.066 383.641 382.063 381.195 382.063Z" fill="black"/>
<path d="M384.24 381.583H331.368C330.058 381.583 328.989 382.647 328.989 383.963C328.989 385.279 330.058 386.348 331.368 386.348H384.24C385.551 386.348 386.62 385.279 386.62 383.963C386.62 382.647 385.551 381.583 384.24 381.583Z" fill="#99B9FF"/>
<path d="M331.374 382.244C330.421 382.244 329.65 383.015 329.65 383.963C329.65 384.911 330.421 385.687 331.374 385.687H384.241C385.189 385.687 385.96 384.911 385.96 383.963C385.96 383.015 385.189 382.244 384.241 382.244H331.374ZM384.241 387.008H331.374C329.695 387.008 328.329 385.642 328.329 383.963C328.329 382.289 329.695 380.923 331.374 380.923H384.241C385.915 380.923 387.276 382.289 387.276 383.963C387.276 385.642 385.915 387.008 384.241 387.008Z" fill="black"/>
<path d="M360.192 360.767C360.192 362.289 358.956 363.524 357.434 363.524C355.916 363.524 354.681 362.289 354.681 360.767C354.681 359.244 355.916 358.009 357.434 358.009C358.956 358.009 360.192 359.244 360.192 360.767Z" fill="white"/>
<path d="M357.601 313.299C360.283 313.572 362.672 311.615 362.945 308.928L363.681 301.567C363.933 299.037 362.103 296.768 359.572 296.485L358.674 296.385C357.182 296.218 355.7 296.783 354.692 297.902L352.811 299.984C352.529 300.297 352.075 300.388 351.702 300.201C351.198 299.949 350.467 299.707 349.897 300.01C348.929 300.524 347.81 304.411 351.364 305.434L349.221 313.052C348.677 314.983 347.346 316.597 345.551 317.494C344.255 318.139 342.985 318.886 342.924 319.334C342.622 321.774 349.841 322.662 351.893 322.712C355.7 322.798 361.039 321.275 361.442 319.097C361.629 318.109 356.935 317.63 357.137 316.642C357.55 314.57 357.601 313.299 357.601 313.299Z" fill="white"/>
<path d="M343.579 319.48C343.579 319.586 343.615 319.732 343.771 319.919C344.895 321.22 349.665 321.996 351.908 322.046C355.71 322.137 360.176 320.645 360.746 319.142C360.434 318.941 359.602 318.669 359.077 318.502C357.635 318.028 356.269 317.585 356.486 316.511C356.884 314.524 356.94 313.284 356.94 313.274L356.97 312.573L357.666 312.644C358.79 312.75 359.884 312.422 360.756 311.711C361.628 310.995 362.173 309.987 362.284 308.862L363.02 301.502C363.237 299.339 361.659 297.383 359.496 297.146L358.598 297.045C357.323 296.899 356.042 297.388 355.18 298.341L353.3 300.428C352.821 300.962 352.039 301.108 351.404 300.791C350.89 300.534 350.456 300.463 350.209 300.594C350.007 300.705 349.483 301.643 349.614 302.737C349.735 303.77 350.386 304.466 351.545 304.799L352.18 304.98L349.856 313.234C349.261 315.341 347.799 317.111 345.843 318.089C344.114 318.951 343.68 319.364 343.579 319.48ZM352.216 323.377C352.1 323.377 351.989 323.372 351.878 323.372C350.486 323.337 344.492 322.777 342.773 320.781C342.379 320.322 342.203 319.793 342.274 319.253C342.339 318.699 342.873 318.089 345.258 316.904C346.877 316.092 348.092 314.625 348.586 312.876L350.562 305.853C348.797 305.096 348.379 303.67 348.293 302.833C348.147 301.436 348.742 299.873 349.589 299.424C350.234 299.082 351.066 299.142 351.994 299.611C352.105 299.661 352.236 299.636 352.317 299.545L354.202 297.458C355.347 296.188 357.046 295.542 358.745 295.729L359.642 295.825C362.521 296.147 364.623 298.754 364.336 301.633L363.6 308.994C363.449 310.471 362.738 311.797 361.593 312.734C360.625 313.526 359.445 313.96 358.21 313.985C358.155 314.544 358.044 315.437 357.817 316.591C358.119 316.793 358.961 317.07 359.491 317.242C360.928 317.711 362.289 318.154 362.092 319.218C361.603 321.85 356.128 323.372 352.216 323.377Z" fill="black"/>
<path d="M357.999 313.98C357.968 313.98 357.943 313.98 357.918 313.975C357.268 313.899 353.97 313.395 353.169 310.965C353.053 310.617 353.239 310.244 353.587 310.128C353.935 310.012 354.303 310.199 354.419 310.547C354.994 312.281 357.948 312.649 358.074 312.664C358.437 312.704 358.694 313.032 358.654 313.395C358.614 313.733 358.326 313.98 357.999 313.98Z" fill="black"/>
<path d="M349.186 300.115L348.228 294.312C348.187 291.756 349.917 289.513 352.397 288.898L359.571 287.118C360.297 286.936 360.998 287.501 360.983 288.247C360.963 288.998 361.669 289.563 362.395 289.382L365.667 288.565C366.63 288.323 367.416 289.346 366.932 290.219L366.766 290.526C366.408 291.176 366.756 291.993 367.472 292.18L370.033 292.891C370.905 293.118 371.177 294.222 370.512 294.832L363.887 300.418C363.887 300.418 362.823 295.588 358.054 296.304C355.639 296.667 353.93 298.517 353.199 299.848C352.916 300.362 352.367 301.28 351.485 300.468C351.485 300.468 352.064 298.492 349.186 300.115Z" fill="black"/>
<path d="M407.452 203.84C407.135 203.84 406.852 203.608 406.802 203.28C400.263 162.337 368.657 135.293 368.339 135.026C368.057 134.789 368.021 134.37 368.258 134.093C368.495 133.816 368.909 133.781 369.191 134.012C369.267 134.083 377.359 140.95 386.146 152.833C394.253 163.799 404.649 181.419 408.103 203.073C408.163 203.431 407.916 203.774 407.558 203.835C407.518 203.835 407.488 203.84 407.452 203.84Z" fill="black"/>
<path d="M414.511 204.097C414.173 204.097 413.886 203.84 413.855 203.502C411.43 177.441 393.063 152.45 392.882 152.203C392.665 151.91 392.726 151.497 393.018 151.28C393.31 151.058 393.724 151.119 393.941 151.411C394.127 151.663 412.711 176.942 415.171 203.376C415.206 203.739 414.939 204.061 414.576 204.092C414.551 204.097 414.531 204.097 414.511 204.097Z" fill="black"/>
<path d="M113.589 126.884C113.442 126.884 113.291 126.833 113.165 126.727C112.888 126.495 112.847 126.077 113.084 125.8C131.073 104.332 154.819 88.7484 181.762 80.7371C192.975 77.3996 204.535 75.4434 216.111 74.9191C216.484 74.8838 216.786 75.1863 216.802 75.5493C216.817 75.9123 216.534 76.2249 216.171 76.24C204.702 76.7593 193.247 78.6953 182.135 82.0026C155.444 89.9432 131.915 105.381 114.098 126.647C113.967 126.803 113.78 126.884 113.589 126.884Z" fill="black"/>
<path d="M111.144 129.888C110.998 129.888 110.856 129.838 110.73 129.742C110.448 129.515 110.398 129.102 110.624 128.815C111.431 127.801 112.258 126.788 113.085 125.795C113.317 125.517 113.735 125.482 114.012 125.719C114.295 125.951 114.33 126.369 114.098 126.647C113.276 127.625 112.455 128.633 111.658 129.636C111.532 129.803 111.335 129.888 111.144 129.888Z" fill="black"/>
<path d="M95.2323 128.058C95.0911 128.058 94.9499 128.013 94.8289 127.917C94.5416 127.695 94.4861 127.282 94.7079 126.995C105.633 112.772 118.792 100.536 133.831 90.634C149.39 80.3843 166.567 72.8975 184.888 68.3852C185.246 68.2995 185.599 68.5163 185.685 68.8692C185.776 69.2271 185.559 69.58 185.206 69.6708C149.566 78.4483 117.799 99.0889 95.7566 127.796C95.6255 127.968 95.4289 128.058 95.2323 128.058Z" fill="black"/>
<path d="M228.952 70.0741C228.66 70.0741 228.373 70.1195 228.085 70.2001C227.309 70.4371 226.663 70.9564 226.28 71.6673C225.892 72.3832 225.806 73.205 226.038 73.9814C226.517 75.5897 228.211 76.5073 229.814 76.0333C231.418 75.5544 232.335 73.8553 231.861 72.2521C231.629 71.4706 231.105 70.8303 230.394 70.4472C229.946 70.2001 229.451 70.0741 228.952 70.0741ZM228.952 77.4803C227.072 77.4803 225.332 76.2501 224.773 74.3595C224.44 73.2453 224.566 72.0655 225.121 71.037C225.675 70.0136 226.593 69.2674 227.707 68.9347C228.821 68.6019 230.001 68.728 231.024 69.2825C232.048 69.8371 232.794 70.7598 233.127 71.874C233.807 74.178 232.492 76.6131 230.188 77.2988C229.774 77.4198 229.361 77.4803 228.952 77.4803Z" fill="black"/>
<path d="M172.914 92.8626L177.457 94.5112L176.761 90.5787L172.914 92.8626ZM178.304 96.18C178.228 96.18 178.152 96.1699 178.082 96.1397L171.15 93.6289C170.913 93.5432 170.741 93.3264 170.721 93.0693C170.696 92.8172 170.822 92.5702 171.039 92.4391L176.907 88.9553C177.094 88.8444 177.321 88.8343 177.517 88.925C177.714 89.0158 177.855 89.1922 177.89 89.409L178.954 95.4036C178.994 95.6355 178.909 95.8724 178.732 96.0237C178.611 96.1296 178.46 96.18 178.304 96.18Z" fill="black"/>
<path d="M70.4319 203.815C70.0689 203.815 69.7715 203.517 69.7715 203.154V199.731C69.7715 199.373 70.0689 199.07 70.4319 199.07C70.7949 199.07 71.0924 199.373 71.0924 199.731V203.154C71.0924 203.517 70.7949 203.815 70.4319 203.815Z" fill="black"/>
<path d="M70.4319 211.775C70.0689 211.775 69.7715 211.478 69.7715 211.115V207.697C69.7715 207.334 70.0689 207.036 70.4319 207.036C70.7949 207.036 71.0924 207.334 71.0924 207.697V211.115C71.0924 211.478 70.7949 211.775 70.4319 211.775Z" fill="black"/>
<path d="M68.1635 206.088H64.7503C64.3823 206.088 64.0898 205.791 64.0898 205.423C64.0898 205.06 64.3823 204.762 64.7503 204.762H68.1635C68.5265 204.762 68.824 205.06 68.824 205.423C68.824 205.791 68.5265 206.088 68.1635 206.088Z" fill="black"/>
<path d="M76.1142 206.088H72.701C72.338 206.088 72.0405 205.791 72.0405 205.423C72.0405 205.06 72.338 204.762 72.701 204.762H76.1142C76.4772 204.762 76.7747 205.06 76.7747 205.423C76.7747 205.791 76.4772 206.088 76.1142 206.088Z" fill="black"/>
<path d="M392.367 297.398C392.004 297.398 391.707 297.1 391.707 296.737V293.319C391.707 292.951 392.004 292.659 392.367 292.659C392.736 292.659 393.028 292.951 393.028 293.319V296.737C393.028 297.1 392.736 297.398 392.367 297.398Z" fill="black"/>
<path d="M392.367 305.359C392.004 305.359 391.707 305.066 391.707 304.698V301.28C391.707 300.912 392.004 300.619 392.367 300.619C392.736 300.619 393.028 300.912 393.028 301.28V304.698C393.028 305.066 392.736 305.359 392.367 305.359Z" fill="black"/>
<path d="M390.099 299.672H386.686C386.323 299.672 386.025 299.374 386.025 299.006C386.025 298.643 386.323 298.346 386.686 298.346H390.099C390.462 298.346 390.76 298.643 390.76 299.006C390.76 299.374 390.462 299.672 390.099 299.672Z" fill="black"/>
<path d="M398.05 299.672H394.637C394.274 299.672 393.976 299.374 393.976 299.006C393.976 298.643 394.274 298.346 394.637 298.346H398.05C398.413 298.346 398.71 298.643 398.71 299.006C398.71 299.374 398.413 299.672 398.05 299.672Z" fill="black"/>
<path d="M72.8119 221.435C71.3952 221.435 70.2457 222.589 70.2457 224.006C70.2457 225.423 71.3952 226.577 72.8119 226.577C74.2286 226.577 75.3832 225.423 75.3832 224.006C75.3832 222.589 74.2286 221.435 72.8119 221.435ZM72.8119 227.903C70.6692 227.903 68.9248 226.154 68.9248 224.006C68.9248 221.858 70.6692 220.114 72.8119 220.114C74.9546 220.114 76.6991 221.858 76.6991 224.006C76.6991 226.154 74.9546 227.903 72.8119 227.903Z" fill="black"/>
<path d="M370.008 88.8241C369.645 88.8241 369.348 88.5267 369.348 88.1586V84.7404C369.348 84.3774 369.645 84.085 370.008 84.085C370.371 84.085 370.669 84.3774 370.669 84.7404V88.1586C370.669 88.5267 370.371 88.8241 370.008 88.8241Z" fill="black"/>
<path d="M370.008 96.7848C369.645 96.7848 369.348 96.4874 369.348 96.1244V92.7061C369.348 92.3381 369.645 92.0457 370.008 92.0457C370.376 92.0457 370.669 92.3381 370.669 92.7061V96.1244C370.669 96.4874 370.376 96.7848 370.008 96.7848Z" fill="black"/>
<path d="M367.739 91.0929H364.326C363.963 91.0929 363.666 90.8005 363.666 90.4324C363.666 90.0694 363.963 89.772 364.326 89.772H367.739C368.102 89.772 368.4 90.0694 368.4 90.4324C368.4 90.8005 368.102 91.0929 367.739 91.0929Z" fill="black"/>
<path d="M375.695 91.0929H372.282C371.914 91.0929 371.621 90.8005 371.621 90.4324C371.621 90.0694 371.914 89.772 372.282 89.772H375.695C376.058 89.772 376.355 90.0694 376.355 90.4324C376.355 90.8005 376.058 91.0929 375.695 91.0929Z" fill="black"/>
<path d="M390.331 102.033C390.331 103.818 388.884 105.265 387.099 105.265C385.32 105.265 383.873 103.818 383.873 102.033C383.873 100.248 385.32 98.8015 387.099 98.8015C388.884 98.8015 390.331 100.248 390.331 102.033Z" fill="#CADDFF"/>
<path d="M170.57 351.893L164.394 415.196L159.987 415.015L162.175 348.465L170.57 351.893Z" fill="#99B9FF"/>
<path d="M87.7451 349.614L93.7699 415.358L98.3276 415.015L96.1395 346.06L87.7451 349.614Z" fill="#99B9FF"/>
<path d="M66.772 334.147L68.5416 403.177L72.101 402.406L75.363 330.865L66.772 334.147Z" fill="#99B9FF"/>
<path d="M136.276 332.604L138.046 401.634L141.747 401.655L144.867 329.322L136.276 332.604Z" fill="#99B9FF"/>
<path d="M118.419 278.688V294.751C118.419 310.461 130.791 323.196 146.057 323.196C161.318 323.196 173.691 335.931 173.691 351.641C173.691 353.038 172.561 354.172 171.165 354.172H98.0052C75.1261 354.172 56.5728 335.084 56.5728 311.535V277.261C56.5728 267.894 63.9538 260.301 73.054 260.301H100.551C110.418 260.301 118.419 268.534 118.419 278.688Z" fill="#99B9FF"/>
<path d="M128.734 284.642C128.734 284.642 132.49 318.84 157.718 321.078L128.734 321.492C128.734 321.492 118.005 299.692 117.567 291.202C117.133 282.716 128.734 284.642 128.734 284.642Z" fill="white"/>
<path d="M126.052 285.116C124.07 285.116 121.408 285.434 119.755 286.911C118.645 287.904 118.131 289.336 118.227 291.166C118.62 298.82 127.73 317.907 129.142 320.822L151.633 320.504C143.859 317.933 137.547 311.741 133.165 302.298C129.646 294.706 128.426 287.229 128.144 285.232C127.69 285.182 126.939 285.116 126.052 285.116ZM128.734 322.153C128.482 322.153 128.255 322.006 128.144 321.779C127.7 320.887 117.345 299.762 116.906 291.237C116.79 288.983 117.456 287.199 118.877 285.923C122.225 282.933 128.572 283.947 128.845 283.992C129.132 284.038 129.359 284.274 129.389 284.572C129.399 284.653 130.372 293.143 134.38 301.774C139.704 313.239 147.574 319.516 157.779 320.418C158.127 320.448 158.394 320.751 158.379 321.099C158.364 321.452 158.081 321.734 157.728 321.739L128.744 322.153C128.739 322.153 128.739 322.153 128.734 322.153Z" fill="black"/>
<path d="M92.8271 262.908C97.7226 261.758 99.7644 261.738 117.556 262.388C121.902 262.545 127.075 268.015 127.584 272.346C126.203 276.5 119.825 297.015 130.962 313.037C132.54 315.311 134.688 317.806 137.637 320.196C135.979 321.537 133.407 323.292 129.949 324.315C124.211 326.024 121.323 324.179 116.699 324.315C104.463 324.683 99.9762 338.341 92.0759 336.627C89.9634 336.168 87.1653 334.52 84.5436 328.984C83.0563 324.396 81.7354 319.006 80.9993 312.916C79.0028 296.405 82.2698 282.661 85.189 274.035C86.0561 271.312 87.0594 264.269 92.8271 262.908Z" fill="black"/>
<path d="M132.051 288.474C132.051 288.474 129.172 265.353 120.884 263.377L122.784 293.793L132.051 288.474Z" fill="black"/>
<path d="M89.9133 282.303C86.127 283.912 81.6802 285.802 77.7629 287.491C77.7629 287.542 77.7578 287.587 77.7578 287.632L89.9082 282.384L89.9133 282.303Z" fill="white"/>
<path d="M77.0771 288.65L77.1124 287.047L77.5006 286.881C80.8433 285.444 84.9321 283.7 89.6561 281.693L90.6241 281.28L90.5485 282.827L77.0771 288.65Z" fill="black"/>
<path d="M75.6353 292.714C75.6353 292.714 76.447 278.976 77.6318 273.667C80.1223 262.504 94.5566 262.388 94.5566 262.388L92.0358 290.803L75.6353 292.714Z" fill="black"/>
<path d="M106.984 262.399L107.473 255.451C107.806 255.426 108.033 255.416 108.103 255.411C110.034 255.391 110.665 254.765 110.831 253.167C110.937 252.174 110.972 250.697 110.488 248.847C110.438 248.65 110.448 248.438 110.529 248.252L110.856 247.475C110.927 247.223 110.836 246.946 110.634 246.774L110.458 246.633C109.828 246.114 109.303 245.479 108.885 244.773C108.497 244.117 107.841 242.897 107.388 242.681C106.117 242.076 100.964 239.373 98.0806 244.097C95.8371 247.778 99.5074 252.85 100.838 254.508C101.161 254.912 98.6604 262.782 98.6604 262.782L95.4287 263.563C95.4287 263.563 97.9243 268.005 105.502 266.17C110.897 264.864 110.039 262.847 110.039 262.847L106.984 262.399Z" fill="white"/>
<path d="M96.5833 263.966C97.637 265.03 100.234 266.77 105.346 265.529C108.199 264.834 109.051 263.992 109.309 263.553C109.334 263.503 109.354 263.462 109.374 263.417L106.889 263.054C106.551 263.003 106.304 262.696 106.329 262.353L106.818 255.406C106.838 255.073 107.1 254.816 107.428 254.791C107.781 254.765 108.023 254.755 108.093 254.75C109.727 254.735 110.045 254.322 110.176 253.102C110.317 251.735 110.211 250.394 109.848 249.013C109.757 248.67 109.782 248.307 109.919 247.989L110.216 247.299L110.04 247.142C109.374 246.598 108.794 245.912 108.315 245.111L108.139 244.808C107.902 244.395 107.337 243.432 107.09 243.275L106.964 243.215C105.517 242.514 101.121 240.382 98.6454 244.44C96.6791 247.662 99.8856 252.265 101.353 254.095C101.595 254.397 101.897 254.775 99.2907 262.983C99.2201 263.2 99.0437 263.372 98.8168 263.427L96.5833 263.966ZM102.008 267.279C96.8304 267.279 94.9448 264.052 94.854 263.891C94.7532 263.709 94.7431 263.493 94.8238 263.301C94.9045 263.109 95.0708 262.968 95.2725 262.923L98.1463 262.227C99.1445 259.061 100.123 255.607 100.203 254.77C98.5143 252.628 95.1717 247.591 97.516 243.749C99.573 240.382 102.946 239.797 107.539 242.02L107.67 242.086C108.204 242.343 108.673 243.099 109.278 244.143L109.45 244.435C109.848 245.106 110.332 245.675 110.876 246.124L111.053 246.27C111.456 246.598 111.633 247.142 111.497 247.647C111.487 247.677 111.476 247.707 111.466 247.732L111.134 248.509C111.113 248.559 111.108 248.62 111.124 248.68C111.532 250.218 111.648 251.71 111.487 253.238C111.28 255.229 110.302 256.051 108.109 256.071C108.104 256.071 108.099 256.071 108.093 256.076L107.69 261.834L110.135 262.197C110.362 262.227 110.554 262.378 110.645 262.59C110.675 262.656 110.922 263.286 110.519 264.082C109.934 265.252 108.3 266.175 105.658 266.81C104.292 267.143 103.082 267.279 102.008 267.279Z" fill="black"/>
<path d="M99.6686 238.088C101.065 237.79 102.673 238.002 103.349 237.755C104.443 237.351 104.473 236.036 105.986 235.668C107.816 235.224 108.582 236.005 109.298 237.099C109.419 237.281 109.52 237.483 109.606 237.714C110.76 240.81 109.308 242.318 108.658 242.812C108.658 242.812 104.539 244.944 103.833 245.554C103.173 246.124 102.411 247.475 102.89 249.416C102.951 249.663 102.845 249.925 102.633 250.051C102.386 250.203 102.063 250.132 101.897 249.885C101.358 249.104 100.188 247.601 99.356 247.959C98.3124 248.403 98.635 251.549 100.944 251.912C101.655 252.023 102.23 252.749 102.159 253.495C102.114 253.979 101.655 254.569 100.979 254.725C100.566 254.821 100.158 254.649 99.7896 254.418C98.2821 253.455 94.037 249.366 93.5077 245.7C92.8724 241.289 97.8132 238.491 99.6686 238.088Z" fill="black"/>
<path d="M107.997 255.996C107.987 255.996 107.982 255.996 107.972 255.996C107.897 255.991 106.137 255.915 104.867 254.831C104.609 254.609 104.574 254.226 104.796 253.964C105.013 253.707 105.401 253.676 105.658 253.893C106.606 254.695 108.007 254.765 108.018 254.765C108.355 254.781 108.623 255.068 108.607 255.406C108.592 255.738 108.325 255.996 107.997 255.996Z" fill="black"/>
<path d="M147.07 321.235L158.364 287.909C159.039 286.866 160.219 286.236 161.49 286.236H191.588C192.955 286.236 193.832 287.562 193.388 288.736C193.212 289.2 193.02 289.664 192.864 290.138L182.659 321.295H182.654C182.619 323.115 181.142 324.583 179.317 324.583H123.768C121.923 324.583 120.43 323.085 120.43 321.235H147.07Z" fill="#CADDFF"/>
<path d="M121.172 321.895C121.464 323.06 122.518 323.922 123.768 323.922H179.317C180.764 323.922 181.969 322.737 181.994 321.28C181.994 321.19 182.014 321.099 182.05 321.023L192.239 289.931C192.355 289.573 192.491 289.22 192.622 288.883L192.768 288.499C192.904 288.146 192.854 287.758 192.632 287.431C192.395 287.093 192.017 286.896 191.589 286.896H161.49C160.466 286.896 159.524 287.385 158.964 288.207L147.696 321.447C147.605 321.714 147.353 321.895 147.071 321.895H121.172ZM179.317 325.243H123.768C121.565 325.243 119.77 323.443 119.77 321.235C119.77 320.867 120.062 320.569 120.43 320.569H146.597L157.739 287.703C157.759 287.647 157.779 287.597 157.809 287.552C158.616 286.311 159.987 285.575 161.49 285.575H191.589C192.456 285.575 193.237 285.979 193.721 286.679C194.185 287.36 194.291 288.212 194.004 288.968L193.852 289.367C193.721 289.699 193.6 290.017 193.494 290.345L183.31 321.426C183.209 323.539 181.445 325.243 179.317 325.243Z" fill="black"/>
<path d="M169.445 303.312C169.022 304.723 169.667 306.17 170.892 306.538C172.117 306.912 173.453 306.065 173.877 304.653C174.3 303.241 173.65 301.799 172.43 301.426C171.205 301.058 169.869 301.9 169.445 303.312Z" fill="#99B9FF"/>
<path d="M88.6576 288.651C92.822 303.846 105.194 313.536 123.138 318.644L120.4 323.761C95.4689 322.884 82.3908 312.034 77.1626 291.212L88.6576 288.651Z" fill="white"/>
<path d="M77.9747 291.711C83.339 312.17 96.7196 322.158 120.012 323.085L122.17 319.052C103.758 313.627 92.3333 303.67 88.1941 289.432L77.9747 291.711ZM120.788 324.436L120.38 324.426C95.9028 323.559 81.9677 313.057 76.5277 291.373L76.3613 290.713L89.1268 287.869L89.2932 288.479C93.2106 302.762 104.655 312.699 123.319 318.003L124.106 318.23L120.788 324.436Z" fill="black"/>
<path d="M118.877 318.22C119.135 317.726 119.558 317.333 120.082 317.141C120.46 317.005 120.829 316.829 121.181 316.642L126.062 314.046C126.979 313.597 128.285 314.646 129.233 314.958C132.097 315.896 138.031 318.119 137.542 320.201C137.017 322.455 131.915 321.386 130.11 320.932C129.692 320.832 125.946 322.188 124.766 322.279C123.128 322.405 122.749 321.986 121.948 321.568C121.585 321.371 121.176 321.285 120.738 321.285C120.062 321.28 119.422 320.998 118.998 320.469L118.988 320.454C118.524 319.874 118.444 319.072 118.782 318.407L118.877 318.22Z" fill="white"/>
<path d="M126.571 314.6C126.485 314.6 126.415 314.61 126.354 314.64L121.489 317.227C121.04 317.464 120.662 317.635 120.304 317.761C119.946 317.892 119.649 318.159 119.467 318.522L119.371 318.709C119.15 319.143 119.205 319.667 119.507 320.04C119.8 320.413 120.249 320.62 120.743 320.62C121.302 320.625 121.812 320.746 122.255 320.978C122.391 321.048 122.512 321.119 122.633 321.189C123.178 321.502 123.541 321.709 124.716 321.618C125.26 321.578 126.591 321.179 127.66 320.862C129.47 320.327 129.929 320.206 130.266 320.292C133.186 321.023 135.575 321.124 136.508 320.559C136.725 320.428 136.851 320.262 136.901 320.05C137.098 319.213 134.718 317.454 129.026 315.583C128.698 315.472 128.366 315.306 128.013 315.129C127.529 314.887 126.954 314.6 126.571 314.6ZM124.216 322.964C123.067 322.964 122.538 322.657 121.978 322.339C121.872 322.273 121.761 322.213 121.645 322.152C121.383 322.016 121.086 321.946 120.733 321.946C119.84 321.941 119.018 321.552 118.484 320.882C117.849 320.085 117.738 319.001 118.197 318.109L118.292 317.917C118.63 317.257 119.185 316.763 119.86 316.521C120.158 316.415 120.475 316.264 120.869 316.057L125.754 313.461C126.707 312.992 127.761 313.521 128.603 313.95C128.91 314.101 129.203 314.247 129.44 314.328C135.696 316.385 138.641 318.411 138.187 320.353C138.056 320.912 137.713 321.371 137.194 321.689C135.495 322.727 131.996 322.082 130.014 321.593C129.727 321.628 128.754 321.915 128.038 322.132C126.788 322.5 125.497 322.888 124.811 322.939C124.6 322.954 124.403 322.964 124.216 322.964Z" fill="black"/>
<path d="M141.036 399.048C141.736 398.337 145.81 385.632 145.81 385.632L153.862 391.39L145.039 403.278L141.036 399.048Z" fill="white"/>
<path d="M141.842 398.942L144.973 402.254L152.929 391.536L146.163 386.696C144.973 390.381 142.82 396.91 141.842 398.942ZM145.033 403.943C144.857 403.943 144.681 403.868 144.554 403.732L140.551 399.507C140.314 399.255 140.314 398.861 140.546 398.604C141.035 397.918 143.294 391.314 145.185 385.43C145.25 385.229 145.407 385.072 145.603 385.002C145.805 384.936 146.022 384.971 146.198 385.092L154.245 390.855C154.391 390.956 154.487 391.112 154.517 391.289C154.542 391.46 154.497 391.642 154.391 391.783L145.568 403.676C145.452 403.832 145.27 403.928 145.074 403.938C145.064 403.938 145.049 403.943 145.033 403.943Z" fill="black"/>
<path d="M155.541 415.111L150.186 415.08C146.642 415.06 143.35 413.255 141.419 410.281L136.125 401.876C134.663 399.557 135.48 396.482 137.9 395.191C140.108 394.016 142.422 392.867 142.967 392.917C144.066 393.023 144.514 398.246 144.514 398.246L149.284 398.433C149.284 398.433 151.638 408.254 153.71 409.368C155.223 410.185 156.277 411.38 156.987 412.469C157.729 413.608 156.902 415.121 155.541 415.111Z" fill="black"/>
<path d="M155.001 413.679C154.971 413.679 154.935 413.679 154.9 413.669L147.579 412.565C145.734 412.287 144.126 411.208 143.173 409.6L136.7 398.766C136.513 398.453 136.614 398.05 136.926 397.858C137.239 397.672 137.647 397.777 137.834 398.09L144.302 408.925C145.059 410.185 146.324 411.037 147.776 411.259L155.102 412.363C155.46 412.418 155.707 412.756 155.656 413.114C155.606 413.442 155.323 413.679 155.001 413.679Z" fill="white"/>
<path d="M145.961 405.527C145.674 405.527 145.407 405.335 145.326 405.043C145.23 404.69 145.437 404.327 145.79 404.231L149.869 403.117C150.222 403.021 150.585 403.228 150.68 403.581C150.776 403.933 150.569 404.296 150.217 404.392L146.138 405.506C146.077 405.522 146.022 405.527 145.961 405.527Z" fill="white"/>
<path d="M148.089 407.629C147.791 407.629 147.519 407.427 147.448 407.125C147.358 406.772 147.574 406.414 147.932 406.328L150.665 405.658C151.023 405.567 151.376 405.789 151.467 406.142C151.552 406.494 151.336 406.852 150.983 406.943L148.245 407.614C148.19 407.624 148.139 407.629 148.089 407.629Z" fill="white"/>
<path d="M168.502 396.628L177.845 406.041L182.801 404.216L174.184 392.171L168.502 396.628Z" fill="white"/>
<path d="M169.496 396.688L178.016 405.274L181.762 403.893L174.049 393.119L169.496 396.688ZM177.845 406.701C177.674 406.701 177.507 406.636 177.381 406.505L168.034 397.092C167.898 396.961 167.832 396.774 167.842 396.588C167.852 396.396 167.943 396.225 168.094 396.104L173.781 391.652C173.923 391.541 174.099 391.49 174.281 391.516C174.457 391.541 174.618 391.642 174.724 391.788L183.34 403.832C183.461 403.999 183.492 404.211 183.431 404.412C183.371 404.609 183.224 404.765 183.028 404.836L178.077 406.661C178.001 406.686 177.926 406.701 177.845 406.701Z" fill="black"/>
<path d="M119.028 327.134C119.028 327.134 161.741 321.885 174.446 333.491C187.146 345.097 154.396 395.005 154.396 395.005L144.035 386.898L153.861 351.621L114.375 339.788L119.028 327.134Z" fill="#5479F7"/>
<path d="M95.5246 350.103C101.726 352.186 112.828 354.868 128.346 354.646C132.752 354.585 136.826 357.157 138.827 361.301C143.42 370.815 153.373 387.946 169.572 399.048L177.316 394.646L157.562 347.714C155.757 343.428 152.384 340.096 148.215 338.482L109.066 323.332C109.066 323.332 96.9261 319.747 90.977 331.187C89.9132 333.229 87.9419 329.579 87.473 331.227C85.8597 336.879 90.1955 348.319 95.5246 350.103Z" fill="#5479F7"/>
<path d="M166.486 371.102C166.234 371.102 165.992 370.956 165.881 370.709L156.957 350.567C155.238 346.685 151.966 343.615 147.988 342.153L129.238 335.261C128.895 335.14 128.724 334.757 128.845 334.414C128.971 334.076 129.354 333.9 129.697 334.021L148.442 340.913C152.757 342.501 156.297 345.823 158.162 350.033L167.091 370.174C167.237 370.507 167.086 370.895 166.753 371.047C166.667 371.082 166.577 371.102 166.486 371.102Z" fill="white"/>
<path d="M156.065 388.415C155.894 388.415 155.717 388.35 155.591 388.213C153.786 386.333 152.011 384.316 150.317 382.214C150.091 381.932 150.131 381.518 150.418 381.286C150.701 381.059 151.114 381.1 151.346 381.387C153.015 383.454 154.764 385.446 156.539 387.296C156.796 387.563 156.786 387.982 156.524 388.234C156.393 388.355 156.231 388.415 156.065 388.415Z" fill="white"/>
<path d="M150.832 382.461C150.64 382.461 150.449 382.375 150.318 382.214C149.491 381.19 148.659 380.117 147.852 379.033C147.635 378.74 147.696 378.327 147.988 378.11C148.281 377.888 148.694 377.949 148.911 378.241C149.707 379.315 150.529 380.369 151.346 381.387C151.573 381.669 151.533 382.088 151.245 382.315C151.124 382.416 150.978 382.461 150.832 382.461Z" fill="white"/>
<path d="M174.896 404.569C174.896 404.569 174.442 408.572 175.208 412.111C175.617 413.997 177.311 415.322 179.236 415.322H202.176C203.815 415.322 204.561 413.271 203.3 412.217C199.222 408.788 191.72 403.56 182.498 402.028L179.922 405.637L174.896 404.569Z" fill="black"/>
<path d="M201.087 412.822H177.315C176.947 412.822 176.655 412.524 176.655 412.161C176.655 411.793 176.947 411.501 177.315 411.501H201.087C201.45 411.501 201.747 411.793 201.747 412.161C201.747 412.524 201.45 412.822 201.087 412.822Z" fill="white"/>
<path d="M187.822 408.592C187.737 408.592 187.651 408.577 187.57 408.541C187.232 408.4 187.071 408.012 187.212 407.674L188.468 404.614C188.609 404.276 188.992 404.115 189.33 404.256C189.668 404.397 189.829 404.78 189.688 405.118L188.432 408.183C188.326 408.436 188.079 408.592 187.822 408.592Z" fill="white"/>
<path d="M191.956 409.393C191.891 409.393 191.82 409.383 191.75 409.363C191.402 409.247 191.215 408.869 191.331 408.526L192.244 405.763C192.355 405.421 192.728 405.234 193.076 405.345C193.424 405.461 193.61 405.834 193.494 406.182L192.587 408.94C192.491 409.217 192.234 409.393 191.956 409.393Z" fill="white"/>
<path d="M204.313 323.856H61.8005C59.1435 323.856 57.0815 326.352 57.384 329.206L67.2253 422.603H74.329L68.1681 334.943C68.0622 333.4 69.1916 332.079 70.6234 332.079H192.959C195.102 332.079 196.791 334.056 196.63 336.365L190.529 423.152H197.638L207.646 327.89C207.868 325.737 206.315 323.856 204.313 323.856Z" fill="white"/>
<path d="M191.24 422.492H197.043L206.99 327.819C207.081 326.922 206.804 326.035 206.224 325.394C205.715 324.83 205.034 324.517 204.313 324.517H61.8005C60.7771 324.517 59.8191 324.956 59.1032 325.752C58.2966 326.65 57.9084 327.885 58.0394 329.135L67.8203 421.942H73.6182L67.5077 334.994C67.4421 334.031 67.7699 333.088 68.4051 332.407C68.995 331.772 69.7815 331.419 70.6234 331.419H192.959C194.124 331.419 195.213 331.908 196.035 332.79C196.927 333.748 197.381 335.064 197.285 336.41L191.24 422.492ZM198.228 423.813H189.824L195.969 336.32C196.04 335.336 195.712 334.378 195.072 333.688C194.502 333.083 193.751 332.745 192.959 332.745H70.6234C70.1546 332.745 69.7109 332.942 69.3731 333.305C68.9849 333.723 68.7883 334.303 68.8286 334.898L75.0399 423.263H66.6304L56.7236 329.271C56.5521 327.653 57.0614 326.045 58.1201 324.865C59.0931 323.791 60.3989 323.196 61.8005 323.196H204.313C205.417 323.196 206.446 323.66 207.207 324.512C208.034 325.43 208.432 326.69 208.301 327.96L198.228 423.813Z" fill="black"/>
<path d="M274.579 67.4878C272.709 67.3164 270.99 69.328 270.077 70.9666C268.207 74.3243 267.828 78.4837 269.069 82.1238C270.768 87.115 275.29 90.7097 280.493 91.3299C283.871 91.7332 287.042 90.7047 290.39 91.8794C294.06 93.1701 297.453 96.4119 301.416 96.6034C305.55 96.8051 309.644 94.3448 313.582 93.2154C318.775 91.7282 323.967 90.0291 328.591 87.2461C330.728 85.9605 332.795 84.3774 333.96 82.1692C336.4 77.5409 333.622 75.5999 330.143 73.4874C325.54 70.6943 325.939 64.609 319.299 64.7099C316.692 64.7502 314.106 65.5216 311.509 65.3048C305.858 64.8359 300.816 59.7842 295.295 61.0647C289.644 62.3756 286.987 69.6104 281.063 70.2204C279.233 70.4019 277.539 69.3079 276.107 68.1533C275.598 67.7399 275.083 67.5332 274.579 67.4878Z" fill="black"/>
<path d="M311.338 144.837C311.338 144.837 303.902 147.615 300.983 145.276C298.068 142.941 305.505 138.999 307.254 139.291C309.004 139.584 311.338 144.837 311.338 144.837Z" fill="black"/>
<path d="M348.702 204.359L341.704 216.62L337.913 211.367L344.038 199.393L348.702 204.359Z" fill="white"/>
<path d="M338.694 211.306L341.643 215.4L347.89 204.455L344.199 200.527L338.694 211.306ZM341.709 217.281C341.497 217.281 341.295 217.175 341.174 217.009L337.383 211.75C337.237 211.553 337.217 211.286 337.333 211.064L343.453 199.09C343.549 198.899 343.736 198.768 343.947 198.738C344.164 198.707 344.376 198.783 344.522 198.939L349.186 203.905C349.387 204.117 349.423 204.435 349.276 204.687L342.279 216.948C342.168 217.145 341.966 217.266 341.744 217.281C341.734 217.281 341.719 217.281 341.709 217.281Z" fill="black"/>
<path d="M344.129 214.75C342.284 218.556 337.615 227.798 333.113 232.229C332.014 233.308 330.159 232.804 329.765 231.317C328.359 225.983 327.416 214.871 332.669 206.108C332.669 206.108 335.165 205.816 339.828 206.693L338.79 211.074L339.365 210.661C340.227 210.046 341.396 210.101 342.203 210.787L343.549 211.942C344.356 212.637 344.593 213.792 344.129 214.75Z" fill="black"/>
<path d="M332.377 231.296C332.11 231.296 331.857 231.13 331.757 230.868C327.628 219.938 332.997 207.535 333.229 207.011C333.38 206.678 333.768 206.527 334.101 206.673C334.434 206.819 334.585 207.207 334.439 207.545C334.383 207.671 329.059 219.983 332.992 230.399C333.123 230.742 332.952 231.125 332.614 231.256C332.533 231.281 332.457 231.296 332.377 231.296Z" fill="white"/>
<path d="M341.412 220.724C341.291 220.724 341.165 220.689 341.059 220.618L337.555 218.344C337.252 218.143 337.162 217.734 337.363 217.427C337.56 217.124 337.968 217.034 338.276 217.235L341.775 219.509C342.077 219.706 342.168 220.114 341.971 220.422C341.84 220.618 341.628 220.724 341.412 220.724Z" fill="white"/>
<path d="M339.662 223.835C339.526 223.835 339.38 223.79 339.264 223.699L336.052 221.233C335.765 221.012 335.709 220.598 335.936 220.306C336.153 220.018 336.571 219.963 336.859 220.185L340.065 222.65C340.353 222.872 340.413 223.285 340.186 223.578C340.055 223.744 339.864 223.835 339.662 223.835Z" fill="white"/>
<path d="M370.865 204.651C370.865 204.944 377.283 218.955 377.283 218.955L369.993 219.539L365.032 207.57L370.865 204.651Z" fill="white"/>
<path d="M365.879 207.883L370.416 218.844L376.285 218.375C372.478 210.051 371.057 206.839 370.527 205.564L365.879 207.883ZM369.988 220.205C369.726 220.205 369.484 220.043 369.378 219.791L364.422 207.822C364.291 207.505 364.427 207.137 364.739 206.98L370.573 204.056C370.774 203.955 371.016 203.966 371.213 204.092C371.369 204.182 371.47 204.339 371.51 204.51C371.757 205.241 375.443 213.358 377.878 218.682C377.969 218.879 377.959 219.106 377.853 219.292C377.742 219.479 377.55 219.6 377.333 219.615L370.043 220.2C370.028 220.205 370.008 220.205 369.988 220.205Z" fill="black"/>
<path d="M370.573 216.035C370.573 216.035 372.03 212.537 375.821 214.286C375.821 214.286 382.784 224.349 385.37 232.658C386.096 235.007 383.691 237.13 381.448 236.111C376.204 233.742 367.986 228.771 363.288 219.539C363.288 219.539 364.745 215.748 367.074 213.994L370.573 216.035Z" fill="black"/>
<path d="M383.252 234.241C381.246 234.241 373.94 233.243 364.502 220.22C364.286 219.922 364.351 219.514 364.649 219.297C364.941 219.081 365.354 219.146 365.571 219.444C375.927 233.742 383.53 232.91 383.605 232.9C383.963 232.854 384.296 233.101 384.346 233.464C384.397 233.822 384.155 234.155 383.792 234.206C383.746 234.216 383.565 234.241 383.252 234.241Z" fill="white"/>
<path d="M377.283 226.335C377.056 226.335 376.834 226.214 376.708 226.003C376.527 225.69 376.633 225.287 376.945 225.1L380.444 223.058C380.762 222.872 381.165 222.978 381.347 223.295C381.533 223.613 381.422 224.016 381.11 224.203L377.611 226.245C377.505 226.305 377.394 226.335 377.283 226.335Z" fill="white"/>
<path d="M375.529 223.704C375.297 223.704 375.07 223.578 374.949 223.356C374.777 223.038 374.898 222.635 375.221 222.459L379.012 220.417C379.33 220.245 379.728 220.366 379.905 220.689C380.076 221.007 379.955 221.41 379.638 221.581L375.846 223.628C375.745 223.679 375.635 223.704 375.529 223.704Z" fill="white"/>
<path d="M333.542 133.997C333.542 133.997 352.549 137.395 366.242 151.774C369.7 155.404 370.92 160.627 369.438 165.417C366.398 175.243 359.773 193.197 348.707 206.693L340.247 199.398C340.247 199.398 342.289 182.458 347.83 171.951C353.37 161.439 321.003 138.666 321.003 138.666L333.542 133.997Z" fill="white"/>
<path d="M340.948 199.126L348.621 205.75C359.415 192.334 365.889 174.648 368.808 165.225C370.22 160.663 369.055 155.682 365.768 152.233C353.068 138.903 335.528 135.071 333.597 134.683L322.394 138.852C327.986 142.921 353.653 162.321 348.414 172.264C343.428 181.717 341.275 196.665 340.948 199.126ZM348.702 207.359C348.545 207.359 348.394 207.298 348.273 207.197L339.818 199.897C339.652 199.751 339.566 199.539 339.591 199.317C339.612 199.146 341.714 182.14 347.245 171.643C349.357 167.635 345.485 160.789 336.037 151.85C328.757 144.953 320.705 139.266 320.625 139.21C320.423 139.069 320.317 138.827 320.347 138.585C320.378 138.338 320.544 138.137 320.771 138.046L333.31 133.377C333.42 133.337 333.541 133.327 333.657 133.347C333.849 133.382 353.033 136.947 366.721 151.315C370.336 155.117 371.621 160.597 370.068 165.614C367.084 175.253 360.408 193.464 349.216 207.117C349.1 207.253 348.939 207.339 348.757 207.354C348.742 207.354 348.722 207.359 348.702 207.359Z" fill="black"/>
<path d="M373.199 207.278L363.287 210.197C363.287 210.197 345.208 171.951 339.959 166.405C334.706 160.854 324.502 151.805 313.713 148.593C302.923 145.381 302.923 137.209 302.923 137.209L321.295 131.95C321.295 131.95 346.957 143.047 355.407 155.601C363.867 168.155 373.199 207.278 373.199 207.278Z" fill="white"/>
<path d="M303.619 137.693C303.816 139.447 305.122 145.346 313.899 147.958C326.196 151.618 337.318 162.654 340.439 165.946C345.425 171.225 361.382 204.646 363.64 209.406L372.408 206.819C371.183 201.808 362.582 167.429 354.863 155.969C347.018 144.323 323.735 133.755 321.245 132.651L303.619 137.693ZM363.287 210.858C363.035 210.858 362.798 210.716 362.687 210.479C362.506 210.101 344.593 172.264 339.481 166.854C336.42 163.622 325.5 152.793 313.526 149.228C302.394 145.916 302.268 137.295 302.268 137.204C302.268 136.911 302.46 136.649 302.747 136.569L321.114 131.315C321.26 131.275 321.416 131.28 321.557 131.345C322.611 131.799 347.492 142.659 355.962 155.233C364.386 167.741 373.461 205.524 373.84 207.122C373.92 207.465 373.724 207.812 373.386 207.913L363.469 210.832C363.408 210.853 363.348 210.858 363.287 210.858Z" fill="black"/>
<path d="M288.051 107.135C293.012 97.2083 301.174 95.7462 301.174 95.7462L315.175 94.5816C319.551 94.2842 324.2 96.9915 325.929 101.03L338.79 131.078C338.79 131.078 336.168 138.081 324.502 139.251C312.841 140.42 304.819 139.689 301.028 144.358C298.532 147.438 298.613 126.899 300.045 110.654L288.051 107.135Z" fill="#5479F7"/>
<path d="M325.379 133.413L318.961 130.493L314.005 132.535C314.005 132.535 287.41 129.162 299.303 110.115C299.354 110.029 289.961 108.129 289.961 108.129C289.961 108.129 279.122 133.997 313.42 134.577C313.42 134.577 315.17 135.167 317.504 133.997C319.838 132.828 323.917 135.167 325.379 133.413Z" fill="white"/>
<path d="M290.38 108.89C289.644 110.967 287.219 119.074 291.368 125.421C294.923 130.872 302.349 133.73 313.436 133.917C313.501 133.917 313.567 133.932 313.632 133.952C313.688 133.972 315.175 134.421 317.207 133.402C318.487 132.767 320.055 132.999 321.573 133.226C322.39 133.347 323.171 133.468 323.801 133.418L318.951 131.214L314.257 133.145C314.151 133.191 314.036 133.206 313.925 133.191C313.37 133.12 300.307 131.381 296.561 123.48C294.822 119.815 295.401 115.464 298.28 110.533C296.677 110.175 293.037 109.424 290.38 108.89ZM314.59 135.389C313.97 135.389 313.521 135.288 313.325 135.238C301.814 135.031 294.055 131.966 290.254 126.137C285.106 118.237 289.175 108.29 289.351 107.871C289.472 107.584 289.78 107.418 290.088 107.478C299.732 109.429 299.732 109.429 299.909 109.848C299.994 110.049 299.979 110.276 299.863 110.463C296.843 115.303 296.133 119.492 297.756 122.911C300.973 129.712 312.397 131.628 313.92 131.86L318.709 129.878C318.881 129.813 319.067 129.813 319.233 129.893L325.652 132.813C325.838 132.893 325.974 133.065 326.025 133.266C326.07 133.463 326.014 133.675 325.883 133.836C324.87 135.051 323.095 134.789 321.376 134.532C320.065 134.335 318.704 134.133 317.802 134.587C316.531 135.222 315.407 135.389 314.59 135.389Z" fill="black"/>
<path d="M300.579 111.955L287.551 108.27L288.055 107.135C288.055 107.135 289.538 106.001 289.82 106.001C290.102 106.001 297.463 105.714 297.463 105.714L301.996 107.135L300.579 111.955Z" fill="#5479F7"/>
<path d="M349.937 135.328H324.648L343.393 106.455C343.983 105.552 345.001 105.008 346.1 105.008H366.625C367.931 105.008 368.722 106.404 368.026 107.478L349.937 135.328Z" fill="black"/>
<path d="M354.979 115.132C354.157 116.397 352.392 117.421 351.031 117.421C349.675 117.421 349.236 116.397 350.058 115.132C350.885 113.866 352.65 112.838 354.006 112.838C355.367 112.838 355.801 113.866 354.979 115.132Z" fill="white"/>
<path d="M354.011 113.498C352.872 113.498 351.314 114.41 350.613 115.489C350.285 115.999 350.265 116.362 350.346 116.518C350.431 116.669 350.688 116.76 351.031 116.76C352.171 116.76 353.724 115.847 354.424 114.768C354.757 114.259 354.777 113.896 354.692 113.745C354.611 113.589 354.354 113.498 354.011 113.498ZM351.031 118.081C349.867 118.081 349.378 117.496 349.186 117.148C348.833 116.493 348.954 115.626 349.509 114.768C350.452 113.316 352.428 112.177 354.011 112.177C355.171 112.177 355.665 112.762 355.851 113.11C356.209 113.765 356.093 114.632 355.534 115.489C354.591 116.941 352.614 118.081 351.031 118.081Z" fill="black"/>
<path d="M349.292 137.501H308.111C307.708 137.501 307.38 137.174 307.38 136.765V135.142H350.023V136.765C350.023 137.174 349.695 137.501 349.292 137.501Z" fill="black"/>
<path d="M310.506 93.7045C310.768 93.5734 314.272 89.4291 316.329 86.989C316.173 86.3134 316.193 86.0966 316.254 85.0681C316.254 85.0681 315.19 83.9993 315.613 82.6128C316.112 81.0045 317.64 82.3002 317.64 82.3002C317.64 82.3002 318.346 81.06 321.003 83.1926C323.66 85.3303 326.473 82.7338 326.473 82.7338C326.473 82.7338 326.468 84.332 325.066 86.2731C324.29 87.3469 324.159 88.7636 324.124 90.0846L322.636 89.8678C321.815 90.8458 321.205 91.3198 320.075 91.7886C320.075 91.7886 319.188 91.6223 318.26 90.8559L316.632 94.5817L318.295 95.459C318.295 95.459 318.669 97.7933 314.297 98.3781C309.921 98.9629 306.422 95.459 306.422 95.459C306.422 95.459 308.757 94.5817 310.506 93.7045Z" fill="white"/>
<path d="M307.698 95.6707C308.918 96.5983 311.394 98.1007 314.212 97.7226C316.899 97.3647 317.484 96.3513 317.61 95.8471L316.319 95.1665C316.017 95.0052 315.886 94.6371 316.027 94.3144L317.655 90.5937C317.741 90.4021 317.908 90.2609 318.109 90.2156C318.311 90.1702 318.523 90.2156 318.684 90.3467C319.228 90.8054 319.758 91.0071 320.025 91.0928C320.892 90.7097 321.411 90.2962 322.127 89.4442C322.274 89.2728 322.5 89.182 322.727 89.2173L323.494 89.3282C323.574 88.1031 323.806 86.8881 324.532 85.8848C324.986 85.2596 325.278 84.6748 325.465 84.1807C324.124 84.8109 322.284 85.068 320.59 83.7118C319.163 82.5623 318.487 82.5825 318.316 82.6127C318.296 82.6178 318.271 82.6127 318.245 82.6127C318.23 82.6127 318.215 82.6178 318.21 82.6279C318.114 82.7993 317.943 82.9152 317.751 82.9505C317.555 82.9858 317.358 82.9304 317.207 82.8043C316.985 82.6178 316.597 82.4312 316.445 82.4766C316.395 82.4917 316.314 82.5875 316.244 82.8094C315.941 83.7925 316.708 84.5941 316.718 84.6042C316.849 84.7353 316.919 84.9168 316.909 85.1033L316.899 85.2647C316.854 86.1318 316.844 86.2932 316.97 86.8427C317.015 87.0444 316.965 87.2561 316.834 87.4124C311.222 94.0876 310.99 94.2035 310.799 94.2993C309.765 94.8186 308.545 95.3278 307.698 95.6707ZM313.294 99.104C309.185 99.104 306.095 96.0639 305.954 95.9278C305.797 95.7664 305.732 95.5345 305.777 95.3177C305.828 95.0959 305.979 94.9144 306.191 94.8388C306.216 94.8337 308.459 93.9867 310.148 93.1448C310.34 92.9633 311.258 91.9902 315.619 86.8074C315.528 86.3133 315.538 85.9856 315.578 85.2949C315.22 84.8311 314.575 83.7522 314.983 82.4212C315.235 81.6094 315.714 81.312 316.077 81.2061C316.642 81.0397 317.212 81.2616 317.6 81.4784C317.731 81.4078 317.887 81.3523 318.069 81.317C318.951 81.1456 320.08 81.6044 321.417 82.6783C323.605 84.4378 325.924 82.3354 326.025 82.2497C326.216 82.0682 326.499 82.0229 326.735 82.1287C326.977 82.2346 327.134 82.4716 327.134 82.7337C327.134 82.8094 327.114 84.5689 325.601 86.6612C324.941 87.5737 324.82 88.8543 324.784 90.1047C324.779 90.2912 324.694 90.4727 324.547 90.5937C324.401 90.7147 324.215 90.7702 324.028 90.7399L322.894 90.5786C322.097 91.4709 321.411 91.9499 320.328 92.3986C320.212 92.449 320.08 92.4642 319.959 92.4389C319.924 92.4339 319.304 92.3129 318.543 91.8642L317.484 94.2842L318.603 94.8741C318.785 94.9699 318.911 95.1463 318.946 95.353C318.961 95.4438 319.072 96.2807 318.417 97.163C317.686 98.1461 316.329 98.7763 314.383 99.0334C314.015 99.0839 313.647 99.104 313.294 99.104Z" fill="black"/>
<path d="M318.26 91.5164C318.104 91.5164 317.948 91.4659 317.822 91.35L317.343 90.9114C317.071 90.6694 317.045 90.2509 317.287 89.9786C317.534 89.7114 317.953 89.6862 318.225 89.9333L318.704 90.3669C318.976 90.6089 318.997 91.0273 318.749 91.2996C318.623 91.4458 318.442 91.5164 318.26 91.5164Z" fill="black"/>
<path d="M397.621 250.737C401.695 249.779 405.773 252.31 406.736 256.389C407.689 260.473 405.163 264.561 401.085 265.519C397.011 266.477 392.932 263.941 391.969 259.863C391.011 255.784 393.542 251.695 397.621 250.737ZM384.185 260.18L384.861 263.049L388.072 263.024C388.349 263.659 388.672 264.264 389.04 264.834L387.24 267.501L389.257 269.648L392.03 268.01C392.579 268.418 393.164 268.781 393.774 269.094L393.547 272.305L396.361 273.157L397.944 270.359C398.619 270.435 399.305 270.455 399.996 270.42L401.402 273.314L404.271 272.643L404.241 269.422C404.876 269.144 405.481 268.822 406.051 268.449L408.713 270.253L410.861 268.232L409.227 265.459C409.635 264.909 409.993 264.324 410.306 263.714L413.512 263.941L414.364 261.118L411.566 259.535C411.647 258.859 411.667 258.174 411.627 257.483L414.521 256.071L413.845 253.203L410.634 253.233C410.356 252.593 410.034 251.988 409.666 251.423L411.466 248.756L409.449 246.608L406.676 248.242C406.121 247.833 405.542 247.47 404.937 247.163L405.163 243.946L402.34 243.094L400.757 245.897C400.086 245.817 399.401 245.796 398.71 245.837L397.303 242.938L394.435 243.613L394.465 246.835C393.825 247.107 393.225 247.43 392.655 247.803L389.993 246.003L387.845 248.02L389.479 250.793C389.075 251.347 388.712 251.927 388.4 252.537L385.193 252.31L384.341 255.134L387.139 256.717C387.064 257.392 387.039 258.078 387.079 258.774L384.185 260.18Z" fill="#99B9FF"/>
<path d="M91.1333 154.285C95.212 153.327 99.2907 155.858 100.249 159.937C101.207 164.021 98.6756 168.104 94.602 169.062C90.5283 170.02 86.4446 167.489 85.4866 163.41C84.5287 159.327 87.0596 155.243 91.1333 154.285ZM77.6973 163.728L78.3728 166.597L81.5894 166.567C81.8667 167.207 82.1894 167.812 82.5574 168.382L80.7576 171.044L82.7742 173.196L85.5471 171.558C86.0967 171.966 86.6765 172.329 87.2865 172.637L87.0596 175.853L89.8779 176.705L91.461 173.902C92.1316 173.983 92.8223 174.003 93.513 173.963L94.9196 176.862L97.7833 176.186L97.7581 172.964C98.3933 172.692 98.9983 172.37 99.568 171.996L102.23 173.801L104.373 171.78L102.739 169.007C103.148 168.457 103.511 167.872 103.818 167.262L107.03 167.489L107.882 164.666L105.084 163.083C105.159 162.407 105.179 161.722 105.144 161.031L108.038 159.624L107.362 156.75L104.146 156.781C103.874 156.145 103.551 155.535 103.178 154.966L104.978 152.304L102.961 150.156L100.188 151.789C99.6386 151.381 99.0588 151.018 98.4488 150.705L98.6756 147.494L95.8573 146.642L94.2743 149.445C93.6037 149.364 92.9181 149.344 92.2223 149.385L90.8157 146.486L87.952 147.161L87.9772 150.383C87.342 150.655 86.737 150.978 86.1723 151.351L83.5103 149.546L81.3626 151.568L82.9961 154.341C82.5877 154.895 82.2247 155.475 81.9171 156.085L78.7056 155.858L77.8586 158.681L80.6517 160.264C80.5761 160.94 80.5559 161.626 80.5912 162.316L77.6973 163.728Z" fill="#99B9FF"/>
</svg>
