<svg xmlns="http://www.w3.org/2000/svg" xmlns:xlink="http://www.w3.org/1999/xlink" width="500" zoomAndPan="magnify" viewBox="0 0 375 374.999991" height="500" preserveAspectRatio="xMidYMid meet" version="1.2"><defs/><g id="7ac387def1"><g style="fill:#000000;fill-opacity:1;"><g transform="translate(38.474264, 208.124986)"><path style="stroke:none" d="M 18.90625 0.421875 C 15.832031 0.421875 13.078125 -0.078125 10.640625 -1.078125 C 8.210938 -2.078125 6.269531 -3.550781 4.8125 -5.5 C 3.363281 -7.457031 2.597656 -9.8125 2.515625 -12.5625 L 13.40625 -12.5625 C 13.5625 -11.007812 14.097656 -9.820312 15.015625 -9 C 15.929688 -8.1875 17.128906 -7.78125 18.609375 -7.78125 C 20.128906 -7.78125 21.328125 -8.128906 22.203125 -8.828125 C 23.078125 -9.523438 23.515625 -10.492188 23.515625 -11.734375 C 23.515625 -12.765625 23.164062 -13.617188 22.46875 -14.296875 C 21.769531 -14.972656 20.910156 -15.53125 19.890625 -15.96875 C 18.878906 -16.414062 17.4375 -16.914062 15.5625 -17.46875 C 12.84375 -18.3125 10.625 -19.148438 8.90625 -19.984375 C 7.195312 -20.828125 5.722656 -22.066406 4.484375 -23.703125 C 3.253906 -25.335938 2.640625 -27.46875 2.640625 -30.09375 C 2.640625 -34.007812 4.050781 -37.070312 6.875 -39.28125 C 9.707031 -41.5 13.398438 -42.609375 17.953125 -42.609375 C 22.578125 -42.609375 26.304688 -41.5 29.140625 -39.28125 C 31.972656 -37.070312 33.488281 -33.992188 33.6875 -30.046875 L 22.625 -30.046875 C 22.539062 -31.398438 22.039062 -32.460938 21.125 -33.234375 C 20.207031 -34.015625 19.03125 -34.40625 17.59375 -34.40625 C 16.351562 -34.40625 15.351562 -34.078125 14.59375 -33.421875 C 13.84375 -32.765625 13.46875 -31.816406 13.46875 -30.578125 C 13.46875 -29.222656 14.101562 -28.164062 15.375 -27.40625 C 16.65625 -26.644531 18.648438 -25.828125 21.359375 -24.953125 C 24.078125 -24.035156 26.28125 -23.15625 27.96875 -22.3125 C 29.664062 -21.476562 31.132812 -20.265625 32.375 -18.671875 C 33.613281 -17.078125 34.234375 -15.019531 34.234375 -12.5 C 34.234375 -10.113281 33.625 -7.941406 32.40625 -5.984375 C 31.1875 -4.023438 29.421875 -2.46875 27.109375 -1.3125 C 24.796875 -0.15625 22.0625 0.421875 18.90625 0.421875 Z M 18.90625 0.421875 "/></g></g><g style="fill:#000000;fill-opacity:1;"><g transform="translate(75.27338, 208.124986)"><path style="stroke:none" d="M 40.09375 -42.015625 L 40.09375 0 L 29.859375 0 L 29.859375 -17.296875 L 13.9375 -17.296875 L 13.9375 0 L 3.703125 0 L 3.703125 -42.015625 L 13.9375 -42.015625 L 13.9375 -25.546875 L 29.859375 -25.546875 L 29.859375 -42.015625 Z M 40.09375 -42.015625 "/></g></g><g style="fill:#000000;fill-opacity:1;"><g transform="translate(119.013474, 208.124986)"><path style="stroke:none" d="M 25.140625 0 L 16.390625 -15.859375 L 13.9375 -15.859375 L 13.9375 0 L 3.703125 0 L 3.703125 -42.015625 L 20.890625 -42.015625 C 24.203125 -42.015625 27.023438 -41.4375 29.359375 -40.28125 C 31.691406 -39.125 33.4375 -37.535156 34.59375 -35.515625 C 35.75 -33.503906 36.328125 -31.257812 36.328125 -28.78125 C 36.328125 -25.988281 35.535156 -23.492188 33.953125 -21.296875 C 32.378906 -19.109375 30.054688 -17.554688 26.984375 -16.640625 L 36.6875 0 Z M 13.9375 -23.09375 L 20.28125 -23.09375 C 22.15625 -23.09375 23.5625 -23.550781 24.5 -24.46875 C 25.4375 -25.394531 25.90625 -26.691406 25.90625 -28.359375 C 25.90625 -29.960938 25.4375 -31.222656 24.5 -32.140625 C 23.5625 -33.054688 22.15625 -33.515625 20.28125 -33.515625 L 13.9375 -33.515625 Z M 13.9375 -23.09375 "/></g></g><g style="fill:#000000;fill-opacity:1;"><g transform="translate(158.026529, 208.124986)"><path style="stroke:none" d="M 23.578125 0.421875 C 19.628906 0.421875 16.007812 -0.492188 12.71875 -2.328125 C 9.425781 -4.171875 6.8125 -6.738281 4.875 -10.03125 C 2.9375 -13.320312 1.96875 -17.019531 1.96875 -21.125 C 1.96875 -25.226562 2.9375 -28.914062 4.875 -32.1875 C 6.8125 -35.46875 9.425781 -38.023438 12.71875 -39.859375 C 16.007812 -41.691406 19.628906 -42.609375 23.578125 -42.609375 C 27.523438 -42.609375 31.144531 -41.691406 34.4375 -39.859375 C 37.726562 -38.023438 40.320312 -35.46875 42.21875 -32.1875 C 44.113281 -28.914062 45.0625 -25.226562 45.0625 -21.125 C 45.0625 -17.019531 44.101562 -13.320312 42.1875 -10.03125 C 40.269531 -6.738281 37.675781 -4.171875 34.40625 -2.328125 C 31.132812 -0.492188 27.523438 0.421875 23.578125 0.421875 Z M 23.578125 -8.921875 C 26.929688 -8.921875 29.613281 -10.035156 31.625 -12.265625 C 33.644531 -14.503906 34.65625 -17.457031 34.65625 -21.125 C 34.65625 -24.832031 33.644531 -27.789062 31.625 -30 C 29.613281 -32.21875 26.929688 -33.328125 23.578125 -33.328125 C 20.179688 -33.328125 17.476562 -32.226562 15.46875 -30.03125 C 13.457031 -27.84375 12.453125 -24.875 12.453125 -21.125 C 12.453125 -17.414062 13.457031 -14.453125 15.46875 -12.234375 C 17.476562 -10.023438 20.179688 -8.921875 23.578125 -8.921875 Z M 23.578125 -8.921875 "/></g></g><g style="fill:#000000;fill-opacity:1;"><g transform="translate(205.0576, 208.124986)"><path style="stroke:none" d="M 29.140625 -21.546875 C 31.578125 -21.023438 33.53125 -19.816406 35 -17.921875 C 36.476562 -16.023438 37.21875 -13.863281 37.21875 -11.4375 C 37.21875 -7.914062 35.988281 -5.128906 33.53125 -3.078125 C 31.082031 -1.023438 27.664062 0 23.28125 0 L 3.703125 0 L 3.703125 -42.015625 L 22.625 -42.015625 C 26.894531 -42.015625 30.234375 -41.035156 32.640625 -39.078125 C 35.054688 -37.117188 36.265625 -34.46875 36.265625 -31.125 C 36.265625 -28.644531 35.613281 -26.585938 34.3125 -24.953125 C 33.019531 -23.316406 31.296875 -22.179688 29.140625 -21.546875 Z M 13.9375 -25.015625 L 20.640625 -25.015625 C 22.316406 -25.015625 23.601562 -25.382812 24.5 -26.125 C 25.40625 -26.863281 25.859375 -27.953125 25.859375 -29.390625 C 25.859375 -30.816406 25.40625 -31.910156 24.5 -32.671875 C 23.601562 -33.429688 22.316406 -33.8125 20.640625 -33.8125 L 13.9375 -33.8125 Z M 21.484375 -8.265625 C 23.203125 -8.265625 24.53125 -8.648438 25.46875 -9.421875 C 26.40625 -10.203125 26.875 -11.332031 26.875 -12.8125 C 26.875 -14.28125 26.382812 -15.429688 25.40625 -16.265625 C 24.425781 -17.109375 23.078125 -17.53125 21.359375 -17.53125 L 13.9375 -17.53125 L 13.9375 -8.265625 Z M 21.484375 -8.265625 "/></g></g><g style="fill:#000000;fill-opacity:1;"><g transform="translate(244.489509, 208.124986)"><path style="stroke:none" d="M 23.578125 0.421875 C 19.628906 0.421875 16.007812 -0.492188 12.71875 -2.328125 C 9.425781 -4.171875 6.8125 -6.738281 4.875 -10.03125 C 2.9375 -13.320312 1.96875 -17.019531 1.96875 -21.125 C 1.96875 -25.226562 2.9375 -28.914062 4.875 -32.1875 C 6.8125 -35.46875 9.425781 -38.023438 12.71875 -39.859375 C 16.007812 -41.691406 19.628906 -42.609375 23.578125 -42.609375 C 27.523438 -42.609375 31.144531 -41.691406 34.4375 -39.859375 C 37.726562 -38.023438 40.320312 -35.46875 42.21875 -32.1875 C 44.113281 -28.914062 45.0625 -25.226562 45.0625 -21.125 C 45.0625 -17.019531 44.101562 -13.320312 42.1875 -10.03125 C 40.269531 -6.738281 37.675781 -4.171875 34.40625 -2.328125 C 31.132812 -0.492188 27.523438 0.421875 23.578125 0.421875 Z M 23.578125 -8.921875 C 26.929688 -8.921875 29.613281 -10.035156 31.625 -12.265625 C 33.644531 -14.503906 34.65625 -17.457031 34.65625 -21.125 C 34.65625 -24.832031 33.644531 -27.789062 31.625 -30 C 29.613281 -32.21875 26.929688 -33.328125 23.578125 -33.328125 C 20.179688 -33.328125 17.476562 -32.226562 15.46875 -30.03125 C 13.457031 -27.84375 12.453125 -24.875 12.453125 -21.125 C 12.453125 -17.414062 13.457031 -14.453125 15.46875 -12.234375 C 17.476562 -10.023438 20.179688 -8.921875 23.578125 -8.921875 Z M 23.578125 -8.921875 "/></g></g><g style="fill:#000000;fill-opacity:1;"><g transform="translate(291.520558, 208.124986)"><path style="stroke:none" d="M 41.296875 0 L 31.0625 0 L 13.9375 -25.90625 L 13.9375 0 L 3.703125 0 L 3.703125 -42.015625 L 13.9375 -42.015625 L 31.0625 -15.984375 L 31.0625 -42.015625 L 41.296875 -42.015625 Z M 41.296875 0 "/></g></g><g style="fill:#f97316;fill-opacity:1;"><g transform="translate(285.506616, 154.399195)"><path style="stroke:none" d="M 12.375 -3.078125 L 5.875 -3.078125 L 4.828125 0 L 0.390625 0 L 6.6875 -17.40625 L 11.609375 -17.40625 L 17.90625 0 L 13.421875 0 Z M 11.28125 -6.34375 L 9.125 -12.71875 L 7 -6.34375 Z M 11.28125 -6.34375 "/></g></g><g style="fill:#f97316;fill-opacity:1;"><g transform="translate(303.773319, 154.399195)"><path style="stroke:none" d="M 7.828125 0.171875 C 6.554688 0.171875 5.414062 -0.03125 4.40625 -0.4375 C 3.40625 -0.851562 2.601562 -1.46875 2 -2.28125 C 1.394531 -3.09375 1.078125 -4.066406 1.046875 -5.203125 L 5.546875 -5.203125 C 5.617188 -4.554688 5.84375 -4.0625 6.21875 -3.71875 C 6.601562 -3.382812 7.101562 -3.21875 7.71875 -3.21875 C 8.34375 -3.21875 8.835938 -3.363281 9.203125 -3.65625 C 9.566406 -3.945312 9.75 -4.347656 9.75 -4.859375 C 9.75 -5.285156 9.601562 -5.640625 9.3125 -5.921875 C 9.019531 -6.203125 8.660156 -6.429688 8.234375 -6.609375 C 7.816406 -6.796875 7.222656 -7.003906 6.453125 -7.234375 C 5.328125 -7.585938 4.40625 -7.9375 3.6875 -8.28125 C 2.976562 -8.625 2.367188 -9.132812 1.859375 -9.8125 C 1.347656 -10.5 1.09375 -11.382812 1.09375 -12.46875 C 1.09375 -14.09375 1.675781 -15.363281 2.84375 -16.28125 C 4.019531 -17.195312 5.550781 -17.65625 7.4375 -17.65625 C 9.351562 -17.65625 10.898438 -17.195312 12.078125 -16.28125 C 13.253906 -15.363281 13.878906 -14.085938 13.953125 -12.453125 L 9.375 -12.453125 C 9.34375 -13.015625 9.132812 -13.457031 8.75 -13.78125 C 8.375 -14.101562 7.890625 -14.265625 7.296875 -14.265625 C 6.773438 -14.265625 6.359375 -14.125 6.046875 -13.84375 C 5.734375 -13.570312 5.578125 -13.179688 5.578125 -12.671875 C 5.578125 -12.109375 5.84375 -11.671875 6.375 -11.359375 C 6.90625 -11.046875 7.734375 -10.707031 8.859375 -10.34375 C 9.972656 -9.957031 10.878906 -9.59375 11.578125 -9.25 C 12.285156 -8.90625 12.894531 -8.398438 13.40625 -7.734375 C 13.925781 -7.078125 14.1875 -6.226562 14.1875 -5.1875 C 14.1875 -4.1875 13.929688 -3.28125 13.421875 -2.46875 C 12.921875 -1.664062 12.191406 -1.023438 11.234375 -0.546875 C 10.273438 -0.0664062 9.140625 0.171875 7.828125 0.171875 Z M 7.828125 0.171875 "/></g></g><g style="fill:#f97316;fill-opacity:1;"><g transform="translate(319.016231, 154.399195)"><path style="stroke:none" d="M 7.828125 0.171875 C 6.554688 0.171875 5.414062 -0.03125 4.40625 -0.4375 C 3.40625 -0.851562 2.601562 -1.46875 2 -2.28125 C 1.394531 -3.09375 1.078125 -4.066406 1.046875 -5.203125 L 5.546875 -5.203125 C 5.617188 -4.554688 5.84375 -4.0625 6.21875 -3.71875 C 6.601562 -3.382812 7.101562 -3.21875 7.71875 -3.21875 C 8.34375 -3.21875 8.835938 -3.363281 9.203125 -3.65625 C 9.566406 -3.945312 9.75 -4.347656 9.75 -4.859375 C 9.75 -5.285156 9.601562 -5.640625 9.3125 -5.921875 C 9.019531 -6.203125 8.660156 -6.429688 8.234375 -6.609375 C 7.816406 -6.796875 7.222656 -7.003906 6.453125 -7.234375 C 5.328125 -7.585938 4.40625 -7.9375 3.6875 -8.28125 C 2.976562 -8.625 2.367188 -9.132812 1.859375 -9.8125 C 1.347656 -10.5 1.09375 -11.382812 1.09375 -12.46875 C 1.09375 -14.09375 1.675781 -15.363281 2.84375 -16.28125 C 4.019531 -17.195312 5.550781 -17.65625 7.4375 -17.65625 C 9.351562 -17.65625 10.898438 -17.195312 12.078125 -16.28125 C 13.253906 -15.363281 13.878906 -14.085938 13.953125 -12.453125 L 9.375 -12.453125 C 9.34375 -13.015625 9.132812 -13.457031 8.75 -13.78125 C 8.375 -14.101562 7.890625 -14.265625 7.296875 -14.265625 C 6.773438 -14.265625 6.359375 -14.125 6.046875 -13.84375 C 5.734375 -13.570312 5.578125 -13.179688 5.578125 -12.671875 C 5.578125 -12.109375 5.84375 -11.671875 6.375 -11.359375 C 6.90625 -11.046875 7.734375 -10.707031 8.859375 -10.34375 C 9.972656 -9.957031 10.878906 -9.59375 11.578125 -9.25 C 12.285156 -8.90625 12.894531 -8.398438 13.40625 -7.734375 C 13.925781 -7.078125 14.1875 -6.226562 14.1875 -5.1875 C 14.1875 -4.1875 13.929688 -3.28125 13.421875 -2.46875 C 12.921875 -1.664062 12.191406 -1.023438 11.234375 -0.546875 C 10.273438 -0.0664062 9.140625 0.171875 7.828125 0.171875 Z M 7.828125 0.171875 "/></g></g><g style="fill:#f97316;fill-opacity:1;"><g transform="translate(334.259142, 154.399195)"><path style="stroke:none" d="M 14.0625 -17.40625 L 14.0625 -14.015625 L 9.453125 -14.015625 L 9.453125 0 L 5.203125 0 L 5.203125 -14.015625 L 0.59375 -14.015625 L 0.59375 -17.40625 Z M 14.0625 -17.40625 "/></g></g></g></svg>